<?xml version="1.0" encoding="utf-8"?>
<!-- Generator: Adobe Illustrator 27.5.0, SVG Export Plug-In . SVG Version: 6.00 Build 0)  -->
<svg version="1.1" id="Layer_1" xmlns="http://www.w3.org/2000/svg" xmlns:xlink="http://www.w3.org/1999/xlink" x="0px" y="0px"
	 viewBox="0 0 274.621 179.949" style="enable-background:new 0 0 274.621 179.949;" xml:space="preserve">
<g>
	<g>
		<path style="fill:#BF831B;" d="M137.3,9.375L52.977,15.23c0,0-13.836,0.141-16.299,5.794c0,0-1.916,3.039,1.642,3.039
			c3.558,0,1.916-2.86,16.967-3.039c15.051-0.179,82.054,0,82.054,0L137.3,9.375z"/>
		<g>
			<path style="fill:#BF831B;" d="M52.977,16.303l84.323-5.855l0.037,10.577c0,0,0.004,0,0.004,0L137.3,9.375L52.977,15.23
				c0,0-13.836,0.141-16.299,5.794c0,0-0.757,1.203-0.432,2.095c0.145-0.562,0.432-1.022,0.432-1.022
				C39.141,16.443,52.977,16.303,52.977,16.303z"/>
		</g>
		<path style="opacity:0.5;fill:#DF9822;" d="M122.284,15.206c-4.187,0.474-8.413,0.729-12.618,0.973
			c-4.955,0.287-9.915,0.466-14.877,0.586c-9.408,0.227-18.814,0.222-28.224,0.264c-4.472,0.02-8.964,0.142-13.399,0.761
			c-2.115,0.295-4.217,0.704-6.274,1.28c-1.14,0.319-1.987,0.64-3.002,1.221c-1.942,1.112-3.945,2.416-6.146,2.94
			c-0.433,0.103-0.91,0.174-1.37,0.142c0.272,0.4,0.847,0.691,1.945,0.691c3.558,0,1.916-2.86,16.967-3.039
			c15.051-0.179,82.054,0,82.054,0l-0.04-11.232C133.295,13.374,127.506,14.615,122.284,15.206z"/>
	</g>
	<g>
		<path style="fill:#BF831B;" d="M137.593,9.375l84.323,5.855c0,0,13.836,0.141,16.299,5.794c0,0,1.915,3.039-1.642,3.039
			c-3.558,0-1.916-2.86-16.967-3.039c-15.051-0.179-82.054,0-82.054,0L137.593,9.375z"/>
		<g>
			<path style="fill:#BF831B;" d="M221.916,16.303l-84.323-5.855l-0.037,10.577c0,0-0.004,0-0.004,0l0.041-11.65l84.323,5.855
				c0,0,13.836,0.141,16.299,5.794c0,0,0.756,1.203,0.432,2.095c-0.145-0.562-0.432-1.022-0.432-1.022
				C235.751,16.443,221.916,16.303,221.916,16.303z"/>
		</g>
		<path style="opacity:0.5;fill:#DF9822;" d="M152.608,15.206c4.186,0.474,8.412,0.729,12.618,0.973
			c4.955,0.287,9.915,0.466,14.877,0.586c9.408,0.227,18.814,0.222,28.224,0.264c4.472,0.02,8.964,0.142,13.399,0.761
			c2.115,0.295,4.217,0.704,6.275,1.28c1.14,0.319,1.986,0.64,3.001,1.221c1.942,1.112,3.945,2.416,6.146,2.94
			c0.433,0.103,0.91,0.174,1.37,0.142c-0.272,0.4-0.847,0.691-1.945,0.691c-3.558,0-1.916-2.86-16.967-3.039
			c-15.051-0.179-82.054,0-82.054,0l0.04-11.232C141.598,13.374,147.387,14.615,152.608,15.206z"/>
	</g>
	<g>
		<g>
			<g>
				<path style="fill:#BF831B;" d="M88.8,109.632l-37.17-80.015c1.188-1.012,1.944-2.516,1.944-4.196
					c0-3.042-2.474-5.516-5.516-5.516s-5.516,2.475-5.516,5.516c0,1.679,0.757,3.183,1.944,4.196l-37.17,80.015H4.119l0.069,0.303
					c1.885,8.266,7.043,14.448,15.329,18.374c7.205,3.414,16.807,5.145,28.54,5.145c11.733,0,21.335-1.731,28.54-5.145
					c8.287-3.926,13.444-10.108,15.329-18.374l0.069-0.303H88.8z M86.615,109.632h-37.59V30.847
					c0.303-0.054,0.597-0.133,0.881-0.235L86.615,109.632z M46.209,30.612c0.27,0.096,0.548,0.175,0.835,0.228v78.792H9.5
					L46.209,30.612z"/>
				<path style="opacity:0.5;fill:#DF9822;" d="M5.951,115.159c2.594,5.688,7.132,10.102,13.566,13.15
					c7.205,3.414,16.807,5.145,28.54,5.145c11.733,0,21.335-1.731,28.54-5.145c6.434-3.048,10.972-7.463,13.566-13.15H5.951z"/>
				<path style="opacity:0.5;fill:#DF9822;" d="M20.777,128.876c7.051,3.038,16.217,4.578,27.28,4.578
					c11.063,0,20.229-1.541,27.281-4.578H20.777z"/>
				<circle style="opacity:0.55;fill:#DF9822;" cx="46.667" cy="23.793" r="2.494"/>
				<path style="fill:#FFFDE9;" d="M47.113,23.364c0,0.501-0.406,0.907-0.907,0.907c-0.501,0-0.907-0.406-0.907-0.907
					c0-0.501,0.406-0.907,0.907-0.907C46.706,22.456,47.113,22.863,47.113,23.364z"/>
			</g>
			<g>
				<path style="fill:#BF831B;" d="M182.626,109.632l0.069,0.303c1.885,8.266,7.043,14.448,15.329,18.374
					c7.205,3.414,16.807,5.145,28.54,5.145c11.733,0,21.335-1.731,28.54-5.145c8.287-3.926,13.444-10.108,15.329-18.374l0.069-0.303
					h-3.196l-37.171-80.015c1.188-1.012,1.944-2.516,1.944-4.196c0-3.042-2.474-5.516-5.516-5.516c-3.042,0-5.516,2.475-5.516,5.516
					c0,1.679,0.757,3.183,1.944,4.196l-37.171,80.015H182.626z M224.715,30.612c0.284,0.102,0.578,0.181,0.882,0.235v78.785h-37.59
					L224.715,30.612z M265.121,109.632h-37.543V30.84c0.287-0.053,0.565-0.132,0.835-0.228L265.121,109.632z"/>
				<path style="opacity:0.5;fill:#DF9822;" d="M268.67,115.159c-2.594,5.688-7.133,10.102-13.566,13.15
					c-7.205,3.414-16.807,5.145-28.54,5.145s-21.335-1.731-28.54-5.145c-6.434-3.048-10.972-7.463-13.566-13.15H268.67z"/>
				<path style="opacity:0.5;fill:#DF9822;" d="M253.844,128.876c-7.051,3.038-16.218,4.578-27.28,4.578
					c-11.063,0-20.229-1.541-27.281-4.578H253.844z"/>
				<circle style="opacity:0.55;fill:#DF9822;" cx="227.955" cy="23.793" r="2.494"/>
				<path style="fill:#FFFDE9;" d="M227.509,23.364c0,0.501,0.406,0.907,0.907,0.907c0.501,0,0.907-0.406,0.907-0.907
					c0-0.501-0.406-0.907-0.907-0.907C227.915,22.456,227.509,22.863,227.509,23.364z"/>
			</g>
		</g>
		<g>
			<g>
				<g>
					<g>
						<path style="fill:#BF831B;" d="M145.832,161.546l-7.221-157.24h-0.813h-0.975h-0.813l-7.221,157.24
							c0,0-1.308,8.795,4.173,9.867h3.861h0.975h3.861C147.14,170.342,145.832,161.546,145.832,161.546z"/>
						<path style="opacity:0.5;fill:#DF9822;" d="M145.832,161.546l-7.221-157.24h-1.27v167.107h4.318
							C147.14,170.342,145.832,161.546,145.832,161.546z"/>
						<path style="fill:#BF831B;" d="M141.556,6.037c0,1.843-1.9,3.338-4.245,3.338c-2.344,0-4.245-1.494-4.245-3.338
							c0-1.844,1.9-3.338,4.245-3.338C139.655,2.699,141.556,4.194,141.556,6.037z"/>
						<path style="fill:#FFDBA2;" d="M138.065,5.614c0,0.722-0.745,1.308-1.663,1.308c-0.919,0-1.663-0.586-1.663-1.308
							c0-0.722,0.745-1.308,1.663-1.308C137.32,4.306,138.065,4.892,138.065,5.614z"/>
					</g>
					<path style="opacity:0.55;fill:#DF9822;" d="M136.401,21.024l-5.833,136.163c0,0,4.626,0.633,4.626-6.484
						C135.195,143.587,136.401,21.024,136.401,21.024z"/>
				</g>
				<path style="fill:#A46522;" d="M163.995,164.311h-24.198h-4.972h-24.198c0,0-23.997,0.536-28.2,10.19h49.467h10.834h49.467
					C187.991,164.847,163.995,164.311,163.995,164.311z"/>
			</g>
		</g>
		<path style="fill:#BF831B;" d="M192.765,177.25H82.349c-1.161,0-2.112-0.95-2.112-2.112l0,0c0-1.161,0.951-2.112,2.112-2.112
			h110.416c1.162,0,2.112,0.95,2.112,2.112l0,0C194.877,176.299,193.927,177.25,192.765,177.25z"/>
	</g>
</g>
</svg>
