<?xml version="1.0" encoding="utf-8"?>
<!-- Generator: Adobe Illustrator 27.5.0, SVG Export Plug-In . SVG Version: 6.00 Build 0)  -->
<svg version="1.1" xmlns="http://www.w3.org/2000/svg" xmlns:xlink="http://www.w3.org/1999/xlink" x="0px" y="0px"
	 viewBox="0 0 500 500" style="enable-background:new 0 0 500 500;" xml:space="preserve">
<g id="BACKGROUND">
	<g>
		<rect style="fill:#403E4D;" width="500" height="500"/>
	</g>
</g>
<g id="OBJECTS">
	<g>
		<g>
			<g>
				<path style="fill:#D69EBF;" d="M254.643,95.417c-87.8,0-159.22,71.43-159.22,159.23c0,87.79,71.42,159.22,159.22,159.22
					c87.79,0,159.22-71.43,159.22-159.22C413.863,166.847,342.433,95.417,254.643,95.417z M254.863,376.88
					c-67.555,0-122.323-54.768-122.323-122.333c0-67.555,54.768-122.323,122.323-122.323s122.323,54.768,122.323,122.323
					C377.186,322.112,322.418,376.88,254.863,376.88z"/>
			</g>
		</g>
		<g>
			<g>
				<path style="fill:#EBD2E1;" d="M254.643,372.487c-64.935,0-117.764-52.828-117.764-117.764
					c0-64.935,52.829-117.763,117.764-117.763c64.935,0,117.763,52.828,117.763,117.763
					C372.406,319.658,319.578,372.487,254.643,372.487z M254.643,137.96c-64.384,0-116.764,52.379-116.764,116.763
					c0,64.384,52.38,116.764,116.764,116.764c64.383,0,116.763-52.38,116.763-116.764C371.406,190.34,319.026,137.96,254.643,137.96
					z"/>
			</g>
			<g>
				<path style="fill:#EBD2E1;" d="M254.647,346.506c-50.607,0-91.78-41.172-91.78-91.779s41.172-91.779,91.78-91.779
					c50.602,0,91.771,41.172,91.771,91.779S305.25,346.506,254.647,346.506z M254.647,163.947c-50.056,0-90.78,40.724-90.78,90.779
					c0,50.056,40.724,90.779,90.78,90.779c50.052,0,90.771-40.724,90.771-90.779C345.419,204.671,304.699,163.947,254.647,163.947z"
					/>
			</g>
			<g>
				<path style="fill:#EBD2E1;" d="M254.647,346.506c-50.607,0-91.78-41.172-91.78-91.779s41.172-91.779,91.78-91.779
					c50.602,0,91.771,41.172,91.771,91.779S305.25,346.506,254.647,346.506z M254.647,163.947c-50.056,0-90.78,40.724-90.78,90.779
					c0,50.056,40.724,90.779,90.78,90.779c50.052,0,90.771-40.724,90.771-90.779C345.419,204.671,304.699,163.947,254.647,163.947z"
					/>
			</g>
			<g>
				<g>
					<path style="fill:#EBD2E1;" d="M260.365,152.282l-0.011,1.998l-7.709-0.041l0.01-1.998l2.866,0.015l0.038-7.064
						c-0.123,0.161-0.312,0.332-0.568,0.512s-0.546,0.347-0.87,0.5c-0.324,0.153-0.644,0.276-0.961,0.368
						c-0.316,0.093-0.61,0.138-0.879,0.136l0.012-2.079c0.269,0.002,0.582-0.077,0.94-0.237c0.357-0.16,0.704-0.35,1.042-0.569
						c0.337-0.22,0.628-0.434,0.871-0.642c0.244-0.207,0.385-0.358,0.426-0.452l2.281,0.012l-0.051,9.526L260.365,152.282z"/>
				</g>
				<g>
					<path style="fill:#EBD2E1;" d="M308.932,169.775c0.331-0.466,0.674-0.874,1.029-1.223c0.355-0.349,0.753-0.63,1.193-0.844
						c0.441-0.213,0.946-0.355,1.516-0.426c0.57-0.071,1.227-0.06,1.97,0.033c0.542,0.051,1.044,0.111,1.506,0.18
						c0.462,0.07,0.886,0.112,1.272,0.126c0.385,0.015,0.721-0.022,1.007-0.111c0.286-0.089,0.525-0.267,0.714-0.533
						c0.176-0.247,0.27-0.527,0.285-0.838c0.014-0.311-0.059-0.626-0.22-0.944c-0.163-0.318-0.43-0.61-0.803-0.874
						c-0.307-0.218-0.611-0.372-0.91-0.461c-0.3-0.089-0.597-0.143-0.889-0.161c-0.292-0.018-0.575-0.008-0.849,0.028
						c-0.274,0.037-0.518,0.078-0.732,0.124l-0.229-2.118c0.225-0.038,0.515-0.063,0.87-0.075c0.355-0.012,0.758,0.018,1.21,0.092
						c0.451,0.073,0.932,0.204,1.442,0.393c0.51,0.188,1.017,0.462,1.522,0.82c0.702,0.499,1.223,1.049,1.563,1.65
						c0.341,0.601,0.5,1.202,0.477,1.804c-0.023,0.602-0.223,1.169-0.602,1.702c-0.293,0.413-0.633,0.716-1.018,0.911
						c-0.387,0.196-0.788,0.325-1.204,0.389c-0.417,0.064-0.827,0.084-1.23,0.058c-0.403-0.026-0.777-0.062-1.124-0.107
						c-0.56-0.096-1.061-0.162-1.504-0.2c-0.444-0.038-0.833-0.047-1.17-0.026c-0.336,0.021-0.646,0.073-0.929,0.158
						c-0.283,0.084-0.56,0.214-0.832,0.389l5.43,3.856l-1.156,1.629L308.932,169.775z"/>
				</g>
				<g>
					<path style="fill:#EBD2E1;" d="M354.295,220.881c0.095,0.565,0.053,1.1-0.127,1.604c-0.18,0.504-0.477,0.953-0.891,1.347
						c-0.415,0.393-0.919,0.694-1.514,0.902c-0.803,0.279-1.569,0.326-2.302,0.139c-0.732-0.187-1.386-0.575-1.962-1.165
						c-0.575-0.59-1.032-1.368-1.368-2.334c-0.332-0.953-0.456-1.861-0.371-2.724c0.084-0.863,0.358-1.632,0.821-2.306l1.9,0.792
						c-0.364,0.468-0.595,0.991-0.693,1.567c-0.099,0.576-0.02,1.232,0.237,1.969c0.287,0.826,0.695,1.407,1.223,1.744
						c0.528,0.336,1.159,0.377,1.892,0.121c0.759-0.264,1.265-0.726,1.52-1.384c0.255-0.659,0.207-1.49-0.142-2.494l-0.18-0.515
						l1.639-0.571l0.199,0.572c0.297,0.851,0.73,1.434,1.299,1.749c0.569,0.315,1.166,0.363,1.791,0.146
						c0.416-0.145,0.725-0.359,0.925-0.643s0.312-0.611,0.337-0.983c0.023-0.371-0.042-0.78-0.197-1.225
						c-0.221-0.635-0.564-1.15-1.029-1.544c-0.465-0.394-0.996-0.651-1.593-0.77l0.952-1.806c0.495,0.112,0.971,0.335,1.429,0.667
						c0.457,0.332,0.874,0.761,1.249,1.285c0.374,0.525,0.677,1.118,0.908,1.779c0.283,0.813,0.395,1.59,0.334,2.331
						c-0.06,0.74-0.286,1.378-0.678,1.914c-0.392,0.535-0.935,0.924-1.632,1.167c-0.49,0.171-0.996,0.233-1.518,0.187
						c-0.523-0.046-0.997-0.195-1.424-0.444C354.902,221.702,354.557,221.345,354.295,220.881z"/>
				</g>
				<g>
					<path style="fill:#EBD2E1;" d="M347.857,281.299l3.08,0.9l1.738-5.948l1.898,0.555l6.609,9.122l-0.431,1.472l-8.505-2.484
						l-0.497,1.705l-1.937-0.566l0.497-1.705l-3.08-0.9L347.857,281.299z M353.983,278.967l-1.177,4.03l5.25,1.534L353.983,278.967z
						"/>
				</g>
				<g>
					<path style="fill:#EBD2E1;" d="M315.047,328.667c0.815-0.641,1.688-1.033,2.62-1.176c0.932-0.143,1.812-0.036,2.642,0.321
						l-0.232,1.826c-0.665-0.213-1.339-0.277-2.025-0.19c-0.686,0.086-1.293,0.337-1.822,0.753
						c-0.434,0.341-0.742,0.743-0.927,1.205c-0.184,0.462-0.243,0.936-0.176,1.423c0.066,0.487,0.266,0.942,0.599,1.365
						c0.333,0.423,0.719,0.722,1.158,0.899c0.439,0.177,0.89,0.228,1.354,0.154c0.464-0.075,0.897-0.27,1.299-0.586
						c0.412-0.324,0.721-0.714,0.929-1.168c0.207-0.454,0.289-0.938,0.245-1.451l1.538-1.211l3.897,7.592l-5.503,4.332l-1.261-1.601
						l4.234-3.334l-1.851-3.526c-0.031,0.332-0.153,0.676-0.368,1.034c-0.215,0.358-0.518,0.69-0.909,0.998
						c-0.708,0.558-1.463,0.904-2.265,1.038c-0.802,0.134-1.574,0.057-2.316-0.232c-0.742-0.289-1.391-0.789-1.949-1.497
						c-0.591-0.751-0.929-1.551-1.015-2.399c-0.086-0.848,0.051-1.671,0.408-2.467C313.711,329.976,314.276,329.275,315.047,328.667
						z"/>
				</g>
				<g>
					<path style="fill:#EBD2E1;" d="M255.179,354.8c0.414-0.779,0.994-1.411,1.741-1.898c0.748-0.487,1.612-0.758,2.592-0.814
						c1.048-0.06,1.978,0.14,2.793,0.599c0.815,0.459,1.467,1.153,1.958,2.082c0.491,0.929,0.774,2.058,0.85,3.388
						c0.102,1.814-0.036,3.345-0.417,4.593c-0.38,1.248-0.959,2.204-1.737,2.868c-0.777,0.664-1.724,1.028-2.839,1.091
						c-0.913,0.052-1.762-0.112-2.545-0.492c-0.783-0.38-1.432-0.94-1.946-1.679l1.233-1.444c0.328,0.56,0.777,0.99,1.346,1.288
						c0.57,0.298,1.184,0.428,1.842,0.391c0.658-0.037,1.225-0.261,1.7-0.672c0.476-0.411,0.831-0.991,1.064-1.738
						c0.234-0.748,0.335-1.633,0.304-2.656c-0.179,0.414-0.424,0.775-0.737,1.083c-0.312,0.307-0.682,0.554-1.11,0.74
						c-0.427,0.186-0.896,0.293-1.407,0.323c-0.94,0.053-1.795-0.11-2.565-0.491c-0.769-0.381-1.393-0.922-1.872-1.622
						c-0.478-0.701-0.742-1.501-0.793-2.401C254.583,356.423,254.765,355.578,255.179,354.8z M258.122,354.481
						c-0.448,0.302-0.799,0.695-1.055,1.182c-0.255,0.486-0.367,1.004-0.336,1.556c0.031,0.551,0.2,1.046,0.509,1.487
						c0.308,0.441,0.699,0.786,1.171,1.035c0.473,0.249,0.984,0.359,1.535,0.327c0.564-0.032,1.07-0.199,1.517-0.5
						c0.448-0.302,0.797-0.686,1.047-1.151c0.249-0.466,0.358-0.981,0.327-1.545c-0.031-0.551-0.201-1.05-0.51-1.497
						c-0.309-0.448-0.699-0.799-1.172-1.056c-0.472-0.256-0.984-0.369-1.535-0.337C259.069,354.012,258.57,354.179,258.122,354.481z
						"/>
				</g>
				<g>
					<path style="fill:#EBD2E1;" d="M194.149,342.898l5.796,3.821l-1.122,1.702l-8.712-5.743l13.719-7.829l2.09,1.378
						L194.149,342.898z"/>
				</g>
				<g>
					<path style="fill:#EBD2E1;" d="M157.247,285.398c0.806-0.309,1.595-0.361,2.366-0.159c0.771,0.202,1.466,0.606,2.088,1.211
						c0.621,0.605,1.098,1.342,1.429,2.209c0.341,0.893,0.467,1.77,0.378,2.632c-0.089,0.863-0.363,1.619-0.822,2.27
						c-0.459,0.651-1.085,1.128-1.879,1.431c-0.529,0.202-1.052,0.269-1.57,0.201c-0.517-0.069-0.991-0.223-1.422-0.461
						c-0.431-0.238-0.8-0.515-1.108-0.83c-0.021,0.397-0.108,0.791-0.262,1.18c-0.153,0.39-0.366,0.738-0.638,1.044
						c-0.272,0.306-0.603,0.533-0.993,0.682c-0.578,0.221-1.143,0.289-1.693,0.205c-0.551-0.084-1.06-0.286-1.527-0.605
						c-0.467-0.318-0.877-0.702-1.229-1.151c-0.351-0.449-0.623-0.925-0.816-1.427c-0.192-0.502-0.308-1.042-0.348-1.617
						c-0.04-0.575,0.008-1.137,0.144-1.686c0.136-0.549,0.374-1.036,0.716-1.462c0.342-0.425,0.814-0.754,1.417-0.984
						c0.377-0.144,0.771-0.198,1.181-0.16c0.411,0.038,0.804,0.154,1.181,0.348c0.377,0.194,0.706,0.433,0.986,0.714
						c0.036-0.474,0.139-0.95,0.311-1.426c0.172-0.476,0.431-0.903,0.778-1.281C156.261,285.897,156.705,285.605,157.247,285.398z
						 M154.063,294.674c0.403-0.154,0.699-0.397,0.889-0.728c0.19-0.332,0.287-0.7,0.291-1.105c0.004-0.404-0.059-0.777-0.189-1.116
						c-0.139-0.365-0.346-0.689-0.62-0.973c-0.274-0.284-0.594-0.489-0.96-0.616c-0.365-0.127-0.749-0.114-1.151,0.04
						c-0.377,0.144-0.657,0.373-0.839,0.688c-0.182,0.315-0.281,0.669-0.296,1.064c-0.015,0.395,0.057,0.799,0.216,1.214
						c0.149,0.389,0.364,0.725,0.644,1.007c0.28,0.282,0.596,0.475,0.945,0.578C153.342,294.831,153.699,294.814,154.063,294.674z
						 M157.904,287.567c-0.354,0.135-0.644,0.329-0.873,0.582c-0.229,0.253-0.392,0.553-0.491,0.9
						c-0.098,0.348-0.139,0.698-0.119,1.05c0.019,0.353,0.093,0.699,0.223,1.038c0.173,0.453,0.431,0.844,0.774,1.174
						c0.343,0.33,0.736,0.554,1.179,0.673c0.443,0.119,0.904,0.087,1.384-0.096c0.341-0.13,0.625-0.325,0.851-0.585
						c0.226-0.259,0.391-0.557,0.495-0.892c0.103-0.335,0.145-0.682,0.123-1.041c-0.021-0.359-0.095-0.702-0.22-1.029
						c-0.173-0.453-0.434-0.842-0.784-1.17c-0.349-0.327-0.747-0.553-1.192-0.679C158.809,287.369,158.358,287.393,157.904,287.567z
						"/>
				</g>
				<g>
					<path style="fill:#EBD2E1;" d="M149.569,229.618c-0.626-0.641-1.057-1.398-1.294-2.269c-0.236-0.871-0.229-1.775,0.022-2.711
						c0.275-1.027,0.763-1.85,1.465-2.47c0.701-0.62,1.58-1.015,2.638-1.184c1.057-0.169,2.245-0.077,3.561,0.276
						c1.796,0.481,3.24,1.102,4.334,1.862c1.093,0.76,1.84,1.615,2.242,2.565c0.401,0.95,0.457,1.965,0.168,3.043
						c-0.237,0.884-0.658,1.635-1.262,2.253c-0.604,0.618-1.34,1.062-2.206,1.331l-0.986-1.623c0.626-0.152,1.173-0.452,1.641-0.897
						c0.467-0.446,0.785-0.98,0.953-1.604c0.178-0.663,0.137-1.283-0.121-1.861c-0.259-0.578-0.718-1.098-1.379-1.561
						c-0.66-0.462-1.483-0.833-2.467-1.111c0.328,0.283,0.592,0.626,0.79,1.027c0.199,0.402,0.32,0.835,0.363,1.299
						c0.043,0.464-0.001,0.937-0.129,1.418c-0.24,0.897-0.669,1.656-1.284,2.278c-0.615,0.622-1.339,1.048-2.17,1.278
						c-0.831,0.23-1.691,0.225-2.582-0.013C150.959,230.702,150.195,230.26,149.569,229.618z M150.151,226.703
						c0.158,0.516,0.432,0.973,0.824,1.37c0.392,0.398,0.87,0.672,1.436,0.824c0.553,0.148,1.093,0.151,1.623,0.007
						c0.529-0.143,0.992-0.402,1.389-0.777c0.396-0.374,0.664-0.821,0.804-1.341c0.15-0.558,0.145-1.093-0.015-1.602
						c-0.159-0.509-0.431-0.962-0.816-1.358c-0.385-0.396-0.853-0.667-1.406-0.816c-0.566-0.152-1.117-0.153-1.655-0.005
						c-0.537,0.148-1.004,0.406-1.398,0.774c-0.395,0.368-0.663,0.819-0.806,1.351C149.986,225.663,149.993,226.188,150.151,226.703
						z"/>
				</g>
				<g>
					<path style="fill:#EBD2E1;" d="M193.568,168.487c0.734,0.907,1.209,1.857,1.425,2.85c0.215,0.994,0.188,1.933-0.083,2.817
						c-0.271,0.885-0.793,1.64-1.568,2.266c-0.773,0.627-1.623,0.982-2.551,1.067c-0.926,0.085-1.85-0.084-2.772-0.506
						c-0.922-0.422-1.75-1.087-2.483-1.993c-0.734-0.907-1.211-1.855-1.433-2.844c-0.22-0.989-0.195-1.931,0.077-2.825
						c0.271-0.893,0.795-1.654,1.569-2.28c0.773-0.626,1.624-0.977,2.549-1.053c0.926-0.076,1.852,0.096,2.779,0.514
						C192.004,166.918,192.834,167.58,193.568,168.487z M191.826,169.896c-0.496-0.613-1.027-1.072-1.593-1.375
						c-0.566-0.303-1.129-0.448-1.689-0.435c-0.561,0.013-1.066,0.202-1.516,0.566c-0.439,0.356-0.725,0.804-0.859,1.343
						c-0.134,0.54-0.11,1.121,0.073,1.743c0.182,0.622,0.523,1.24,1.019,1.853c0.497,0.614,1.031,1.071,1.601,1.37
						c0.571,0.299,1.132,0.441,1.683,0.427c0.551-0.014,1.051-0.204,1.5-0.567c0.439-0.355,0.724-0.806,0.854-1.351
						c0.13-0.545,0.105-1.126-0.073-1.743C192.649,171.11,192.315,170.499,191.826,169.896z"/>
				</g>
			</g>
			<g>
				<g>
					<path style="fill:#EBD2E1;" d="M293.102,366.006c-0.207,0-0.4-0.13-0.473-0.336l-8.287-23.871
						c-0.09-0.261,0.048-0.546,0.309-0.637c0.263-0.088,0.546,0.048,0.637,0.309l8.287,23.871c0.09,0.261-0.048,0.546-0.309,0.637
						C293.212,365.997,293.157,366.006,293.102,366.006z"/>
				</g>
				<g>
					<path style="fill:#EBD2E1;" d="M224.706,168.996c-0.207,0-0.4-0.129-0.472-0.336l-8.522-24.549
						c-0.091-0.261,0.047-0.546,0.308-0.636c0.261-0.093,0.545,0.047,0.636,0.308l8.523,24.549c0.091,0.261-0.047,0.546-0.308,0.636
						C224.816,168.988,224.76,168.996,224.706,168.996z"/>
				</g>
				<g>
					<path style="fill:#EBD2E1;" d="M179.77,203.081c-0.099,0-0.198-0.029-0.285-0.09l-21.315-14.845
						c-0.227-0.158-0.282-0.469-0.124-0.696c0.157-0.227,0.469-0.282,0.696-0.124l21.315,14.845
						c0.227,0.158,0.282,0.469,0.124,0.696C180.083,203.007,179.928,203.081,179.77,203.081z"/>
				</g>
				<g>
					<path style="fill:#EBD2E1;" d="M350.834,322.215c-0.099,0-0.198-0.029-0.286-0.09l-21.317-14.847
						c-0.227-0.157-0.282-0.47-0.124-0.696c0.157-0.225,0.469-0.28,0.696-0.124l21.317,14.847c0.227,0.157,0.282,0.47,0.124,0.696
						C351.147,322.14,350.991,322.215,350.834,322.215z"/>
				</g>
				<g>
					<path style="fill:#EBD2E1;" d="M220.713,367.218c-0.048,0-0.097-0.007-0.145-0.021c-0.264-0.08-0.414-0.359-0.333-0.623
						l7.46-24.624c0.08-0.265,0.358-0.414,0.624-0.334c0.264,0.08,0.414,0.359,0.334,0.623l-7.46,24.624
						C221.126,367.079,220.927,367.218,220.713,367.218z"/>
				</g>
				<g>
					<path style="fill:#EBD2E1;" d="M281.109,167.861c-0.048,0-0.097-0.007-0.145-0.021c-0.265-0.08-0.414-0.359-0.334-0.624
						l7.462-24.631c0.08-0.264,0.361-0.413,0.623-0.333c0.265,0.08,0.414,0.359,0.334,0.623l-7.462,24.631
						C281.522,167.722,281.324,167.861,281.109,167.861z"/>
				</g>
				<g>
					<path style="fill:#EBD2E1;" d="M327.367,200.132c-0.15,0-0.3-0.068-0.398-0.198c-0.167-0.22-0.124-0.534,0.097-0.7
						l20.708-15.687c0.218-0.166,0.532-0.124,0.7,0.097c0.167,0.22,0.124,0.534-0.097,0.7l-20.708,15.687
						C327.579,200.099,327.473,200.132,327.367,200.132z"/>
				</g>
				<g>
					<path style="fill:#EBD2E1;" d="M161.456,325.817c-0.151,0-0.301-0.068-0.399-0.198c-0.167-0.22-0.124-0.533,0.097-0.7
						l20.46-15.499c0.22-0.168,0.534-0.124,0.7,0.097c0.167,0.22,0.124,0.533-0.097,0.7l-20.46,15.499
						C161.667,325.783,161.561,325.817,161.456,325.817z"/>
				</g>
				<g>
					<path style="fill:#EBD2E1;" d="M345.918,253.399c-0.271,0-0.494-0.218-0.5-0.49c-0.006-0.275,0.214-0.504,0.49-0.51
						l25.963-0.519c0.263-0.007,0.504,0.215,0.51,0.49c0.006,0.275-0.214,0.504-0.49,0.51l-25.963,0.519
						C345.925,253.399,345.921,253.399,345.918,253.399z"/>
				</g>
				<g>
					<path style="fill:#EBD2E1;" d="M137.394,257.569c-0.271,0-0.495-0.218-0.5-0.49c-0.005-0.275,0.214-0.504,0.49-0.51
						l25.973-0.52c0.228,0.013,0.504,0.215,0.51,0.49c0.005,0.275-0.214,0.504-0.49,0.51l-25.973,0.52
						C137.401,257.569,137.397,257.569,137.394,257.569z"/>
				</g>
			</g>
		</g>
		<g>
			<g>
				<path style="fill:#EBD2E1;" d="M254.643,414.365c-88.071,0-159.722-71.65-159.722-159.722
					c0-88.071,71.651-159.721,159.722-159.721s159.722,71.65,159.722,159.721C414.365,342.714,342.715,414.365,254.643,414.365z
					 M254.643,95.922c-87.52,0-158.722,71.202-158.722,158.721c0,87.519,71.203,158.722,158.722,158.722
					s158.722-71.202,158.722-158.722C413.365,167.124,342.163,95.922,254.643,95.922z"/>
			</g>
		</g>
		<g>
			<path style="fill:#EBD2E1;" d="M165.061,165.561c-0.128,0-0.256-0.049-0.354-0.146l-22.853-22.853
				c-0.195-0.195-0.195-0.512,0-0.707s0.512-0.195,0.707,0l22.853,22.853c0.195,0.195,0.195,0.512,0,0.707
				C165.317,165.512,165.189,165.561,165.061,165.561z"/>
		</g>
		<g>
			<path style="fill:#EBD2E1;" d="M221.836,132.709c-0.221,0-0.423-0.147-0.482-0.371l-8.348-31.156
				c-0.071-0.267,0.087-0.541,0.354-0.612c0.269-0.072,0.541,0.086,0.612,0.354l8.348,31.156c0.071,0.267-0.087,0.541-0.354,0.612
				C221.923,132.704,221.879,132.709,221.836,132.709z"/>
		</g>
		<g>
			<path style="fill:#EBD2E1;" d="M132.204,222.335c-0.043,0-0.086-0.006-0.13-0.017l-31.15-8.347
				c-0.267-0.071-0.425-0.346-0.354-0.612c0.071-0.267,0.347-0.425,0.612-0.354l31.15,8.346c0.267,0.072,0.425,0.346,0.354,0.613
				C132.627,222.188,132.425,222.335,132.204,222.335z"/>
		</g>
		<g>
			<path style="fill:#EBD2E1;" d="M101.053,296.297c-0.22,0-0.422-0.146-0.482-0.37c-0.072-0.267,0.086-0.541,0.353-0.612
				l31.137-8.398c0.266-0.069,0.541,0.085,0.613,0.353c0.072,0.267-0.086,0.541-0.352,0.612l-31.137,8.398
				C101.14,296.291,101.096,296.297,101.053,296.297z"/>
		</g>
		<g>
			<path style="fill:#EBD2E1;" d="M142.208,367.578c-0.128,0-0.256-0.049-0.354-0.146c-0.195-0.195-0.195-0.512,0-0.707
				l22.853-22.853c0.195-0.195,0.512-0.195,0.707,0c0.195,0.195,0.195,0.512,0,0.707l-22.853,22.854
				C142.464,367.53,142.336,367.578,142.208,367.578z"/>
		</g>
		<g>
			<path style="fill:#EBD2E1;" d="M213.489,408.733c-0.043,0-0.087-0.006-0.13-0.017c-0.267-0.072-0.425-0.346-0.354-0.613
				l8.347-31.15c0.071-0.266,0.348-0.419,0.612-0.354c0.267,0.072,0.425,0.346,0.354,0.613l-8.347,31.15
				C213.912,408.585,213.71,408.733,213.489,408.733z"/>
		</g>
		<g>
			<path style="fill:#EBD2E1;" d="M295.797,408.733c-0.221,0-0.423-0.147-0.483-0.37l-8.346-31.149
				c-0.071-0.268,0.087-0.541,0.354-0.613c0.27-0.064,0.541,0.088,0.613,0.354l8.346,31.15c0.071,0.267-0.087,0.541-0.353,0.613
				C295.883,408.727,295.84,408.733,295.797,408.733z"/>
		</g>
		<g>
			<path style="fill:#EBD2E1;" d="M367.078,367.578c-0.128,0-0.256-0.049-0.354-0.146l-22.853-22.854
				c-0.195-0.195-0.195-0.512,0-0.707c0.195-0.195,0.512-0.195,0.707,0l22.853,22.853c0.195,0.195,0.195,0.512,0,0.707
				C367.334,367.53,367.206,367.578,367.078,367.578z"/>
		</g>
		<g>
			<path style="fill:#EBD2E1;" d="M408.232,296.297c-0.043,0-0.086-0.006-0.13-0.017l-31.28-8.382
				c-0.267-0.072-0.425-0.346-0.354-0.613c0.072-0.266,0.346-0.418,0.613-0.354l31.28,8.382c0.267,0.072,0.425,0.346,0.353,0.613
				C408.655,296.15,408.453,296.297,408.232,296.297z"/>
		</g>
		<g>
			<path style="fill:#EBD2E1;" d="M377.079,222.336c-0.221,0-0.423-0.147-0.483-0.37c-0.071-0.268,0.087-0.541,0.354-0.613
				l31.153-8.347c0.271-0.072,0.541,0.086,0.613,0.354c0.071,0.267-0.087,0.541-0.353,0.612l-31.153,8.348
				C377.165,222.33,377.122,222.336,377.079,222.336z"/>
		</g>
		<g>
			<path style="fill:#EBD2E1;" d="M344.225,165.561c-0.128,0-0.256-0.049-0.353-0.146c-0.195-0.195-0.195-0.512,0-0.707
				l22.852-22.853c0.195-0.195,0.512-0.195,0.707,0c0.195,0.195,0.195,0.512,0,0.707l-22.852,22.853
				C344.481,165.512,344.353,165.561,344.225,165.561z"/>
		</g>
		<g>
			<path style="fill:#EBD2E1;" d="M287.45,132.706c-0.043,0-0.086-0.005-0.13-0.017c-0.267-0.071-0.425-0.346-0.354-0.612
				l8.347-31.153c0.072-0.267,0.345-0.425,0.613-0.354c0.267,0.071,0.425,0.346,0.353,0.612l-8.347,31.153
				C287.873,132.559,287.671,132.706,287.45,132.706z"/>
		</g>
		<g>
			<g>
				<g>
					<path style="fill:#403E4D;" d="M270.631,109.776c-0.148,0.67-0.81,1.098-1.48,0.958c-0.678-0.14-1.106-0.802-0.966-1.48
						c0.21-1.005,0.498-3.941-0.701-5.421c-0.537-0.662-1.347-0.981-2.469-0.981c-3.365,0-5.74,11.075-6.293,18.553
						c-0.047,0.654-0.584,1.16-1.246,1.16c-0.654,0-1.192-0.506-1.238-1.16c-0.553-7.477-2.929-18.553-6.293-18.553
						c-1.121,0-1.932,0.319-2.469,0.981c-1.199,1.48-0.911,4.416-0.701,5.421c0.14,0.678-0.288,1.34-0.966,1.48
						c-0.67,0.14-1.332-0.288-1.48-0.958c-0.039-0.195-0.989-4.79,1.207-7.508c0.701-0.872,2.041-1.916,4.408-1.916
						c4.105,0,6.34,6.145,7.532,11.862c1.199-5.717,3.435-11.862,7.539-11.862c2.368,0,3.707,1.044,4.408,1.916
						C271.62,104.986,270.67,109.582,270.631,109.776z"/>
				</g>
			</g>
		</g>
		<g>
			<g>
				<g>
					<path style="fill:#403E4D;" d="M337.193,123.391c-1.005-0.491-3.287-0.896-4.712,1.16c-0.358,0.514-0.577,1.075-0.787,1.612
						c-0.608,1.542-1.137,2.874-4.93,2.874c-3.793,0-4.315-1.332-4.923-2.874c-0.21-0.537-0.436-1.098-0.787-1.612
						c-1.433-2.056-3.707-1.651-4.72-1.16c-0.615,0.312-0.872,1.059-0.561,1.674c0.304,0.615,1.052,0.872,1.667,0.568
						c0.101-0.047,0.997-0.467,1.565,0.343c0.187,0.273,0.343,0.678,0.514,1.106c0.436,1.114,1.013,2.594,2.749,3.529
						c-1.667,1.324-2.734,3.372-2.734,5.662c0,3.988,3.24,7.236,7.228,7.236c3.988,0,7.236-3.248,7.236-7.236
						c0-2.29-1.067-4.338-2.734-5.662c1.729-0.943,2.313-2.415,2.749-3.529c0.171-0.428,0.327-0.833,0.514-1.106
						c0.506-0.724,1.262-0.483,1.573-0.343c0.615,0.296,1.355,0.047,1.659-0.568C338.065,124.45,337.816,123.702,337.193,123.391z
						 M331.499,136.273c0,2.609-2.118,4.735-4.736,4.735c-2.609,0-4.736-2.126-4.736-4.735c0-2.609,2.126-4.735,4.736-4.735
						C329.381,131.538,331.499,133.664,331.499,136.273z"/>
				</g>
			</g>
		</g>
		<g>
			<g>
				<g>
					<path style="fill:#403E4D;" d="M383.886,190.147v-11.496c2.913-0.958,5.187-2.851,6.13-5.296
						c0.249-0.639-0.07-1.363-0.709-1.612c-0.639-0.249-1.371,0.07-1.62,0.709c-0.701,1.815-2.563,3.232-4.93,3.918c0,0,0,0-0.008,0
						c-0.031-0.008-0.07-0.008-0.109-0.008c-0.257,0-0.499,0.078-0.701,0.21c-0.763,0.163-1.573,0.249-2.399,0.249
						c-0.826,0-1.636-0.086-2.399-0.249c-0.195-0.132-0.436-0.21-0.693-0.21c-0.039,0-0.078,0-0.117,0.008
						c-2.368-0.686-4.237-2.103-4.93-3.918c-0.257-0.639-0.981-0.958-1.62-0.709c-0.647,0.249-0.966,0.974-0.716,1.612
						c0.95,2.446,3.224,4.338,6.129,5.296v11.496c-2.905,0.958-5.179,2.851-6.129,5.296c-0.249,0.639,0.07,1.363,0.716,1.612
						c0.148,0.062,0.304,0.086,0.452,0.086c0.498,0,0.974-0.304,1.16-0.794c0.748-1.9,2.773-3.388,5.32-4.027
						c0.888-0.218,1.846-0.343,2.827-0.343c0.95,0,1.869,0.109,2.734,0.32c0.031,0.008,0.07,0.015,0.101,0.023
						c2.547,0.646,4.572,2.118,5.312,4.027c0.249,0.639,0.974,0.958,1.62,0.709c0.638-0.249,0.958-0.973,0.709-1.612
						C389.073,192.998,386.799,191.105,383.886,190.147z M377.693,189.594v-10.39c0.6,0.078,1.215,0.117,1.846,0.117
						s1.254-0.039,1.854-0.117v10.39c-0.6-0.078-1.223-0.117-1.854-0.117S378.293,189.516,377.693,189.594z"/>
				</g>
			</g>
		</g>
		<g>
			<g>
				<g>
					<path style="fill:#403E4D;" d="M409.448,245.252c-13.077-6.13-20.531-0.756-21.465-0.008c-0.008,0.008-0.015,0.008-0.015,0.016
						c-1.534,0.942-2.563,2.64-2.563,4.58c0,1.854,0.942,3.497,2.376,4.463c0.864,0.584,1.9,0.927,3.014,0.927
						c2.975,0,5.397-2.422,5.397-5.39c0-1.893-0.981-3.567-2.469-4.525c3.162-0.779,8.077-0.888,14.666,2.196
						c0.086,0.039,0.171,0.07,0.265,0.086c0.086,0.023,0.179,0.031,0.265,0.031c0.467,0,0.919-0.265,1.129-0.717
						C410.344,246.288,410.071,245.54,409.448,245.252z M390.794,252.729c-1.597,0-2.89-1.301-2.89-2.89
						c0-1.597,1.293-2.897,2.89-2.897c1.597,0,2.897,1.301,2.897,2.897C393.691,251.428,392.391,252.729,390.794,252.729z"/>
				</g>
			</g>
			<g>
				<g>
					<path style="fill:#403E4D;" d="M406.768,248.928c-0.647-0.273-1.347-0.428-2.095-0.428c-2.975,0-5.39,2.415-5.39,5.39
						c0,1.893,0.981,3.56,2.461,4.517c-3.162,0.787-8.077,0.896-14.666-2.188c-0.171-0.078-0.351-0.117-0.53-0.117
						c-0.467,0-0.911,0.265-1.129,0.716c-0.288,0.623-0.023,1.371,0.6,1.659c4.634,2.173,8.568,2.897,11.745,2.897
						c5.982,0,9.323-2.563,9.775-2.929c0.008-0.008,0.016-0.008,0.016-0.016c1.511-0.942,2.508-2.625,2.508-4.541
						C410.063,251.662,408.708,249.746,406.768,248.928z M404.673,251c1.597,0,2.897,1.293,2.897,2.889
						c0,1.597-1.301,2.898-2.897,2.898c-1.597,0-2.897-1.301-2.897-2.898C401.776,252.293,403.077,251,404.673,251z"/>
				</g>
			</g>
		</g>
		<g>
			<g>
				<g>
					<path style="fill:#403E4D;" d="M372.631,329.026c0.265,0.576,0.452,0.927,0.46,0.935c0.016,0.031,0.039,0.07,0.047,0.101
						C373.013,329.696,372.841,329.353,372.631,329.026z"/>
				</g>
			</g>
			<g>
				<g>
					<path style="fill:#403E4D;" d="M370.84,331.051c-0.078-0.164-0.226-0.444-0.397-0.818
						C370.614,330.483,370.754,330.755,370.84,331.051z"/>
				</g>
			</g>
			<g>
				<g>
					<path style="fill:#403E4D;" d="M381.892,337.664c-0.608-0.319-1.363-0.078-1.682,0.53c-0.164,0.304-1.044,1.799-2.438,1.223
						c-1.355-0.561-0.553-3.193,0.989-7.789l0.094-0.288c1.706-5.086,1.667-8.17,1.659-8.279c0-3.232-2.625-5.865-5.865-5.865
						c-3.201,0-5.81,2.578-5.857,5.771c-0.008,0.031-0.008,0.062-0.008,0.094c-0.054,1.199,0.109,2.407,0.366,3.505
						c-0.382-0.086-0.779-0.132-1.184-0.132c-3.045,0-5.522,2.477-5.522,5.514c0,3.045,2.477,5.522,5.522,5.522
						c3.038,0,5.514-2.477,5.514-5.522c0-0.623-0.101-1.215-0.296-1.768c-0.008-0.039-0.023-0.078-0.047-0.117
						c-0.008-0.031-0.031-0.07-0.047-0.101c-0.008-0.008-0.195-0.358-0.46-0.935c-0.569-1.27-1.464-3.653-1.347-5.896v-0.055
						c0-0.008,0-0.008,0-0.016c0-1.854,1.511-3.365,3.365-3.365c1.861,0,3.373,1.511,3.373,3.388c0,0.031,0.016,2.827-1.534,7.462
						l-0.093,0.288c-1.768,5.265-3.162,9.424,0.428,10.888c0.561,0.234,1.098,0.335,1.597,0.335c2.017,0,3.45-1.644,4.003-2.718
						C382.74,338.731,382.499,337.983,381.892,337.664z M367.965,334.969c-1.667,0-3.022-1.355-3.022-3.022
						c0-1.667,1.355-3.014,3.022-3.014c1.028,0,1.939,0.514,2.477,1.301c0.171,0.249,0.311,0.522,0.397,0.818
						c0.093,0.28,0.14,0.584,0.14,0.896C370.98,333.614,369.625,334.969,367.965,334.969z"/>
				</g>
			</g>
		</g>
		<g>
			<g>
				<g>
					<path style="fill:#403E4D;" d="M335.02,381.358c1.503-5.444-1.23-9.463-1.347-9.627c-0.195-0.28-0.498-0.467-0.841-0.522
						c-0.335-0.055-0.685,0.039-0.95,0.249c-0.28,0.218-0.553,0.514-0.81,0.849c-0.428-2.819-2.072-4.089-2.15-4.151
						c-0.545-0.405-1.316-0.304-1.737,0.234l-1.807,2.313c-0.639-1.706-1.667-2.5-1.729-2.547c-0.545-0.405-1.316-0.304-1.737,0.234
						l-1.48,1.901c-0.491-1.698-1.745-3.03-1.916-3.201c-0.483-0.491-1.269-0.498-1.768-0.016c-0.491,0.483-0.498,1.27-0.016,1.768
						c0.389,0.397,1.402,1.682,1.402,2.765v14.315c0,0.686,0.553,1.246,1.246,1.246c0.693,0,1.246-0.561,1.246-1.246v-11.807
						l2.267-2.913c0.273,0.569,0.514,1.371,0.514,2.469v12.251c0,0.553,0.358,1.028,0.865,1.176c-0.257,0.28-0.382,0.67-0.296,1.075
						c0.117,0.592,0.639,1.005,1.223,1.005c0.078,0,0.164-0.008,0.242-0.023c1.386-0.28,2.648-0.678,3.762-1.207
						c0.366,0.849,0.981,1.9,2.033,3.014c0.249,0.257,0.576,0.389,0.911,0.389c0.304,0,0.615-0.109,0.857-0.343
						c0.498-0.467,0.522-1.262,0.047-1.76c-0.865-0.919-1.332-1.752-1.581-2.352c-0.031-0.078-0.062-0.156-0.093-0.226
						C333.182,385.33,334.42,383.539,335.02,381.358z M325.899,385.922v-11.807l2.267-2.913c0.273,0.569,0.514,1.379,0.514,2.477
						v11.737c-0.95,0.514-1.97,0.865-2.936,1.106C325.845,386.343,325.899,386.14,325.899,385.922z M331.172,383.438v-5.701
						c0.304-0.88,0.763-2.009,1.246-2.913c0.475,1.355,0.872,3.427,0.195,5.865C332.317,381.779,331.811,382.69,331.172,383.438z"/>
				</g>
			</g>
		</g>
		<g>
			<g>
				<g>
					<path style="fill:#403E4D;" d="M245.614,398.423c0-0.693,0.561-1.254,1.246-1.254h4.237c-0.483-0.872-0.748-1.861-0.748-2.897
						c0-3.295,2.679-5.982,5.974-5.982c3.295,0,5.982,2.687,5.982,5.982c0,1.036-0.273,2.025-0.755,2.897h4.229
						c0.686,0,1.246,0.561,1.246,1.254c0,0.686-0.561,1.246-1.246,1.246h-7.181c-0.569,0-1.067-0.389-1.207-0.943
						c-0.148-0.545,0.109-1.129,0.608-1.402c1.114-0.615,1.807-1.784,1.807-3.053c0-1.916-1.566-3.482-3.482-3.482
						c-1.916,0-3.481,1.566-3.481,3.482c0,1.27,0.701,2.438,1.815,3.053c0.498,0.272,0.748,0.857,0.607,1.402
						c-0.14,0.553-0.639,0.943-1.207,0.943h-7.197C246.175,399.669,245.614,399.108,245.614,398.423z"/>
				</g>
				<g>
					<path style="fill:#403E4D;" d="M267.033,403.563c0,0.693-0.561,1.246-1.254,1.246h-18.911c-0.693,0-1.254-0.553-1.254-1.246
						c0-0.693,0.561-1.246,1.254-1.246h18.911C266.472,402.317,267.033,402.87,267.033,403.563z"/>
				</g>
			</g>
		</g>
		<g>
			<g>
				<g>
					<path style="fill:#403E4D;" d="M194.334,389.404l-3.559,2.048c-0.265,0.164-0.615-0.039-0.615-0.358v-0.802
						c-2.493-0.109-4.478-2.173-4.478-4.689v-10.889c0-1.09-0.241-1.908-0.522-2.477l-2.251,2.897v11.823
						c0,0.685-0.561,1.246-1.254,1.246c-0.685,0-1.246-0.561-1.246-1.246v-12.244c0-1.09-0.242-1.908-0.522-2.477l-2.251,2.897
						v11.823c0,0.685-0.561,1.246-1.254,1.246c-0.685,0-1.246-0.561-1.246-1.246v-14.315c0-1.083-1.012-2.368-1.402-2.765
						c-0.483-0.499-0.475-1.285,0.023-1.768c0.491-0.483,1.277-0.475,1.76,0.016c0.171,0.179,1.433,1.495,1.916,3.201l1.48-1.9
						c0.421-0.537,1.192-0.639,1.737-0.226c0.062,0.039,1.09,0.833,1.737,2.539l1.799-2.313c0.421-0.537,1.192-0.639,1.737-0.226
						c0.093,0.062,2.259,1.737,2.259,5.514v10.889c0,1.145,0.872,2.079,1.978,2.189v-0.787c0-0.319,0.35-0.522,0.615-0.366
						l3.559,2.056C194.598,388.851,194.598,389.24,194.334,389.404z"/>
				</g>
			</g>
		</g>
		<g>
			<g>
				<g>
					<path style="fill:#403E4D;" d="M140.249,322.476v8.178c0,0.685-0.561,1.246-1.254,1.246c-0.685,0-1.246-0.561-1.246-1.246
						v-5.141l-6.753,6.761l2.181,2.181c0.491,0.491,0.491,1.277,0,1.768c-0.242,0.242-0.561,0.366-0.88,0.366
						c-0.32,0-0.639-0.125-0.888-0.366l-2.181-2.181l-3.871,3.871c-0.249,0.241-0.569,0.366-0.888,0.366
						c-0.319,0-0.639-0.125-0.88-0.366c-0.49-0.491-0.49-1.277,0-1.768l3.871-3.871l-2.181-2.181c-0.483-0.491-0.483-1.277,0-1.768
						c0.491-0.491,1.277-0.491,1.768,0l2.181,2.181l6.792-6.784h-5.14c-0.693,0-1.246-0.561-1.246-1.246
						c0-0.693,0.553-1.254,1.246-1.254h8.116C139.689,321.222,140.249,321.783,140.249,322.476z"/>
				</g>
			</g>
		</g>
		<g>
			<g>
				<g>
					<path style="fill:#403E4D;" d="M119.937,255.042c-1.822,0-3.427,0.958-4.331,2.407c-0.233-1.013-0.28-1.768-0.288-1.784
						c-0.234-4.214-1.207-8.225-1.246-8.388c-0.093-0.382-0.358-0.693-0.716-0.849c-0.351-0.156-0.763-0.14-1.106,0.055
						c-2.438,1.355-3.918,3.559-4.813,5.764c-0.304-1.519-0.639-2.843-0.966-3.458c-1.012-1.916-3.1-2.049-4.182-1.83
						c-0.67,0.132-1.091,0.787-0.966,1.457c0.132,0.67,0.779,1.106,1.456,0.989c0.117-0.016,1.098-0.179,1.488,0.553
						c0.506,0.966,1.363,6.208,1.807,9.619c0.086,0.662,0.662,1.129,1.332,1.083c0.662-0.047,1.168-0.6,1.16-1.262
						c0-0.07-0.062-6.371,3.474-9.689c0.288,1.527,0.662,3.801,0.787,6.098c0.008,0.187,0.21,3.1,1.659,5.686
						c-0.467,1.402-1.363,3.108-2.243,4.151c-0.647,0.763-2.485,0.693-3.279,0.537c-0.678-0.14-1.332,0.304-1.472,0.981
						c-0.132,0.678,0.304,1.332,0.981,1.472c0.156,0.031,0.81,0.148,1.651,0.148c1.27,0,2.967-0.273,4.027-1.534
						c0.732-0.865,1.519-2.142,2.126-3.482c0.132,0.125,0.273,0.234,0.413,0.335c0.078,0.07,0.156,0.132,0.242,0.187
						c0.226,0.171,0.467,0.319,0.724,0.436c0.109,0.07,0.226,0.125,0.343,0.164c0.031,0.016,0.062,0.031,0.093,0.047
						c0.07,0.031,0.132,0.047,0.202,0.062c0.016,0.016,0.031,0.016,0.047,0.016c0.499,0.171,1.036,0.265,1.597,0.265
						c2.827,0,5.125-2.298,5.125-5.117C125.062,257.34,122.764,255.042,119.937,255.042z M119.937,262.784
						c-0.327,0-0.646-0.062-0.927-0.179c-0.273-0.093-0.514-0.241-0.732-0.42c-0.008-0.008-0.008-0.008-0.016-0.016
						c-0.576-0.483-0.942-1.2-0.942-2.01c0-1.449,1.176-2.625,2.617-2.625c1.449,0,2.625,1.176,2.625,2.625
						C122.562,261.608,121.385,262.784,119.937,262.784z"/>
				</g>
				<g>
					<path style="fill:#403E4D;" d="M119.01,262.605c-0.273-0.093-0.514-0.241-0.732-0.42
						C118.504,262.34,118.745,262.488,119.01,262.605z"/>
				</g>
			</g>
		</g>
		<g>
			<g>
				<g>
					<path style="fill:#403E4D;" d="M142.228,190.692c-0.662,0.187-1.355-0.202-1.535-0.865l-0.615-2.196l-4.486,2.897
						c-0.335,0.218-0.748,0.265-1.122,0.117c-0.374-0.14-0.654-0.444-0.763-0.825l-0.608-2.189l-4.369,2.858
						c-0.335,0.218-0.748,0.273-1.121,0.132c-0.374-0.14-0.654-0.452-0.763-0.833l-0.576-2.041l-4.354,3.201
						c-0.218,0.164-0.483,0.249-0.74,0.249c-0.382,0-0.756-0.179-1.005-0.514c-0.405-0.553-0.288-1.332,0.265-1.745l5.802-4.268
						c0.327-0.242,0.756-0.304,1.145-0.179c0.382,0.14,0.685,0.452,0.794,0.849l0.607,2.134l4.377-2.874
						c0.327-0.218,0.748-0.265,1.122-0.124c0.374,0.14,0.654,0.452,0.763,0.833l0.615,2.204l4.486-2.897
						c0.327-0.218,0.748-0.265,1.114-0.117c0.374,0.14,0.654,0.444,0.763,0.826l1.067,3.832
						C143.279,189.82,142.89,190.513,142.228,190.692z"/>
				</g>
				<g>
					<path style="fill:#403E4D;" d="M120.069,181.673c-0.413-0.553-0.288-1.332,0.265-1.745l5.795-4.268
						c0.335-0.242,0.763-0.304,1.145-0.179c0.389,0.14,0.686,0.452,0.802,0.849l0.6,2.134l4.377-2.874
						c0.335-0.218,0.755-0.257,1.122-0.125c0.374,0.14,0.662,0.452,0.763,0.833l0.615,2.204l4.486-2.897
						c0.335-0.218,0.748-0.257,1.122-0.117c0.374,0.14,0.654,0.444,0.763,0.826l1.067,3.832c0.187,0.662-0.202,1.355-0.865,1.542
						c-0.662,0.187-1.355-0.202-1.542-0.872l-0.615-2.197l-4.486,2.897c-0.335,0.218-0.748,0.265-1.122,0.117
						c-0.366-0.14-0.646-0.444-0.755-0.825l-0.615-2.189l-4.361,2.866c-0.335,0.218-0.756,0.265-1.122,0.125
						c-0.374-0.14-0.662-0.452-0.771-0.833l-0.576-2.041l-4.346,3.209c-0.226,0.164-0.483,0.241-0.74,0.241
						C120.692,182.187,120.31,182.008,120.069,181.673z"/>
				</g>
			</g>
		</g>
		<g>
			<g>
				<g>
					<path style="fill:#403E4D;" d="M195.689,139.684c-0.187,0.498-0.662,0.802-1.161,0.802c-0.148,0-0.304-0.031-0.452-0.086
						c-3.372-1.308-5.693-5.133-5.935-9.666h-2.087c-0.242,4.533-2.563,8.357-5.935,9.666c-0.148,0.055-0.296,0.086-0.452,0.086
						c-0.498,0-0.974-0.304-1.161-0.802c-0.249-0.639,0.07-1.363,0.709-1.612c2.383-0.927,4.105-3.879,4.338-7.337h-3.505
						c-0.685,0-1.246-0.553-1.246-1.246c0-0.693,0.561-1.246,1.246-1.246h3.411c-0.436-3.077-2.064-5.616-4.245-6.465
						c-0.639-0.249-0.958-0.974-0.709-1.62c0.249-0.639,0.974-0.958,1.612-0.709c3.154,1.215,5.39,4.65,5.865,8.793h2.228
						c0.475-4.144,2.71-7.578,5.865-8.793c0.639-0.249,1.363,0.07,1.612,0.709c0.249,0.646-0.07,1.371-0.709,1.62
						c-2.181,0.849-3.809,3.388-4.245,6.465h3.131c0.686,0,1.246,0.553,1.246,1.246c0,0.693-0.561,1.246-1.246,1.246h-3.224
						c0.234,3.458,1.955,6.41,4.338,7.337C195.619,138.322,195.938,139.046,195.689,139.684z"/>
				</g>
			</g>
		</g>
	</g>
	<g>
		<g>
			<path style="fill:#EBD2E1;" d="M244.787,217.647c-0.063,0-0.125-0.012-0.184-0.035c-0.128-0.051-0.229-0.151-0.28-0.278
				c-2.888-7.183,1.029-15.112,5.892-19.44c0.703-0.669,1.416-1.274,2.105-1.859c1.63-1.384,3.037-2.58,3.86-4.212
				c0.313-0.702,0.189-2.078-0.323-3.483c-0.454-1.257-1.134-2.541-1.854-3.901c-1.285-2.43-2.613-4.942-2.865-7.675
				c-0.29-2.548,0.364-4.969,1.751-6.465c0.156-0.17,0.407-0.211,0.611-0.097c0.201,0.112,0.3,0.348,0.237,0.57
				c-1.286,4.624,1.925,7.392,5.323,10.323c2.177,1.876,4.428,3.817,5.608,6.341c3.898,6.699-0.243,14.283-2.984,19.302
				c-0.358,0.749-0.866,2.34-0.849,3.18c0.004,0.198-0.109,0.38-0.289,0.464l-15.55,7.22
				C244.93,217.631,244.859,217.647,244.787,217.647z M252.447,173.062c-0.345,1.068-0.46,2.309-0.314,3.598
				c0.234,2.544,1.516,4.967,2.755,7.31c0.735,1.391,1.431,2.706,1.908,4.027c0.615,1.685,0.723,3.276,0.287,4.253
				c-0.925,1.835-2.475,3.152-4.116,4.546c-0.68,0.577-1.381,1.173-2.076,1.833c-4.509,4.014-8.166,11.234-5.827,17.838
				l14.783-6.865c0.08-1.049,0.575-2.544,0.949-3.322c2.645-4.844,6.624-12.13,2.987-18.382c-1.11-2.37-3.278-4.24-5.375-6.047
				C255.532,179.37,252.574,176.82,252.447,173.062z"/>
		</g>
		<g>
			<path style="fill:#EBD2E1;" d="M256.333,341.323c-0.083,0-0.166-0.021-0.242-0.063c-0.202-0.112-0.302-0.348-0.239-0.571
				c1.28-4.626-1.934-7.396-5.337-10.33c-2.176-1.876-4.425-3.814-5.605-6.334c-3.886-6.708,0.249-14.293,2.984-19.311
				c0.353-0.715,0.867-2.326,0.85-3.181c-0.004-0.198,0.109-0.38,0.29-0.463l15.55-7.21c0.124-0.059,0.268-0.063,0.394-0.012
				c0.128,0.051,0.23,0.151,0.28,0.278c2.887,7.17-1.025,15.093-5.884,19.423c-0.724,0.692-1.445,1.306-2.143,1.899
				c-1.615,1.374-3.011,2.561-3.82,4.187c-0.322,0.697-0.202,2.066,0.313,3.477c0.453,1.254,1.132,2.535,1.851,3.893
				c1.289,2.434,2.622,4.95,2.867,7.694c0.288,2.534-0.361,4.954-1.738,6.461C256.604,341.266,256.469,341.323,256.333,341.323z
				 M249.733,301.847c-0.078,1.072-0.576,2.564-0.952,3.326c-2.638,4.841-6.611,12.129-2.986,18.389
				c1.109,2.364,3.276,4.232,5.373,6.039c2.874,2.478,5.829,5.025,5.971,8.774c0.339-1.065,0.452-2.299,0.307-3.576
				c-0.228-2.555-1.513-4.981-2.756-7.327c-0.735-1.389-1.43-2.701-1.906-4.02c-0.619-1.695-0.722-3.284-0.274-4.25
				c0.907-1.822,2.445-3.131,4.073-4.516c0.69-0.586,1.401-1.191,2.105-1.866c0.004-0.004,0.009-0.008,0.014-0.012
				c4.496-4.004,8.153-11.222,5.814-17.816L249.733,301.847z"/>
		</g>
		<g>
			<path style="fill:#EBD2E1;" d="M317.56,266.702c-4.896,0-9.728-2.64-13.276-4.578c-0.75-0.36-2.311-0.856-3.18-0.849
				c-0.197,0.002-0.38-0.108-0.464-0.289l-7.22-15.55c-0.059-0.125-0.063-0.268-0.012-0.395c0.051-0.128,0.151-0.23,0.278-0.28
				c7.185-2.888,15.111,1.029,19.44,5.892c0.669,0.703,1.274,1.416,1.859,2.105c1.385,1.629,2.58,3.037,4.213,3.86
				c0.701,0.312,2.076,0.189,3.483-0.323c1.256-0.454,2.54-1.134,3.9-1.854c2.43-1.285,4.942-2.614,7.675-2.865
				c2.551-0.286,4.971,0.364,6.466,1.752c0.169,0.156,0.209,0.409,0.097,0.61c-0.112,0.202-0.352,0.301-0.57,0.237
				c-4.621-1.283-7.392,1.923-10.323,5.324c-1.876,2.176-3.816,4.427-6.341,5.607C321.625,266.249,319.587,266.702,317.56,266.702z
				 M301.418,260.286c1.048,0.08,2.543,0.574,3.322,0.949c4.845,2.643,12.129,6.627,18.383,2.987
				c2.369-1.11,4.238-3.278,6.047-5.375c2.48-2.877,5.031-5.835,8.79-5.962c-1.068-0.344-2.31-0.462-3.6-0.314
				c-2.545,0.233-4.967,1.515-7.31,2.754c-1.392,0.736-2.706,1.432-4.027,1.909c-1.688,0.617-3.274,0.721-4.254,0.287
				c-1.834-0.925-3.15-2.476-4.545-4.117c-0.576-0.679-1.173-1.38-1.833-2.075c-4.014-4.509-11.235-8.166-17.838-5.827
				L301.418,260.286z"/>
		</g>
		<g>
			<path style="fill:#EBD2E1;" d="M210.742,266.68c-5.562,0.001-10.964-3.158-14.271-6.869c-0.692-0.723-1.306-1.444-1.899-2.142
				c-1.374-1.615-2.561-3.011-4.186-3.82c-0.697-0.32-2.064-0.202-3.476,0.313c-1.254,0.453-2.536,1.133-3.893,1.851
				c-2.434,1.289-4.951,2.622-7.694,2.867c-2.537,0.285-4.956-0.361-6.462-1.738c-0.17-0.156-0.212-0.409-0.1-0.611
				c0.113-0.202,0.349-0.303,0.571-0.239c4.624,1.276,7.397-1.935,10.331-5.337c1.875-2.176,3.814-4.425,6.334-5.605
				c6.708-3.883,14.293,0.249,19.311,2.984c0.715,0.353,2.334,0.838,3.18,0.85c0.211-0.001,0.38,0.109,0.464,0.29l7.21,15.55
				c0.058,0.124,0.062,0.267,0.011,0.394c-0.05,0.128-0.151,0.229-0.278,0.28C214.2,266.378,212.463,266.68,210.742,266.68z
				 M189.343,252.672c0.574,0,1.078,0.092,1.476,0.275c1.822,0.907,3.13,2.445,4.515,4.073c0.586,0.69,1.192,1.401,1.866,2.105
				c0.004,0.004,0.009,0.009,0.013,0.014c4.004,4.495,11.222,8.153,17.816,5.814l-6.854-14.782
				c-1.073-0.078-2.565-0.576-3.327-0.952c-4.841-2.639-12.13-6.611-18.389-2.986c-2.364,1.109-4.232,3.277-6.039,5.373
				c-2.479,2.874-5.026,5.83-8.774,5.971c1.065,0.34,2.299,0.454,3.576,0.307c2.554-0.228,4.981-1.513,7.327-2.755
				c1.389-0.736,2.701-1.431,4.02-1.907C187.565,252.858,188.525,252.672,189.343,252.672z"/>
		</g>
		<g>
			<path style="fill:#EBD2E1;" d="M289.962,228.04c-0.058,0-0.116-0.01-0.172-0.03l-12.881-4.712
				c-0.129-0.047-0.232-0.145-0.287-0.271c-0.055-0.126-0.055-0.269-0.001-0.395c2.449-5.74,9.195-8.024,14.428-7.725
				c0.771,0.02,1.522,0.081,2.243,0.14c1.695,0.138,3.159,0.258,4.528-0.194c0.41-0.158,1.128-0.809,1.729-2.101
				c0.451-0.962,0.792-2.069,1.153-3.242c0.65-2.111,1.322-4.294,2.739-5.998c1.295-1.626,3.063-2.64,4.722-2.703
				c0.229-0.028,0.436,0.142,0.5,0.363c0.062,0.222-0.035,0.458-0.235,0.572c-3.288,1.857-3.04,5.208-2.777,8.756
				c0.171,2.304,0.347,4.686-0.421,6.802c-1.596,6.039-8.262,7.996-12.673,9.291c-0.613,0.217-1.781,0.819-2.235,1.292
				C290.226,227.986,290.095,228.04,289.962,228.04z M277.76,222.544l12.087,4.422c0.673-0.563,1.78-1.105,2.403-1.323
				c4.221-1.239,10.56-3.101,12.026-8.639c0.708-1.958,0.54-4.231,0.377-6.429c-0.212-2.856-0.429-5.788,1.246-7.975
				c-0.606,0.39-1.181,0.913-1.682,1.544c-1.296,1.558-1.938,3.643-2.561,5.661c-0.371,1.207-0.723,2.347-1.202,3.371
				c-0.616,1.324-1.477,2.304-2.3,2.619c-1.583,0.522-3.216,0.392-4.945,0.249c-0.704-0.058-1.436-0.117-2.204-0.138
				C286.246,215.631,280.186,217.6,277.76,222.544z"/>
		</g>
		<g>
			<path style="fill:#EBD2E1;" d="M201.11,312.362c-0.222,0-0.419-0.146-0.48-0.362c-0.064-0.222,0.033-0.459,0.234-0.573
				c3.287-1.86,3.038-5.216,2.775-8.769c-0.171-2.302-0.347-4.682,0.418-6.794c1.608-6.04,8.27-8.001,12.678-9.299
				c0.59-0.2,1.771-0.808,2.235-1.291c0.138-0.145,0.345-0.192,0.533-0.124l12.875,4.718c0.129,0.048,0.232,0.146,0.287,0.271
				c0.054,0.125,0.055,0.269,0.001,0.395c-2.442,5.733-9.176,8.011-14.412,7.72c-0.803-0.018-1.56-0.079-2.291-0.138
				c-1.68-0.135-3.13-0.251-4.488,0.202c-0.415,0.152-1.128,0.796-1.731,2.09c-0.45,0.96-0.79,2.065-1.15,3.236
				c-0.65,2.116-1.323,4.304-2.749,6.009c-1.288,1.619-3.052,2.635-4.712,2.708C201.125,312.362,201.117,312.362,201.11,312.362z
				 M219.446,286.194c-0.669,0.56-1.772,1.109-2.409,1.324c-4.212,1.24-10.55,3.106-12.026,8.645
				c-0.705,1.953-0.537,4.225-0.374,6.422c0.211,2.854,0.428,5.783-1.236,7.972c0.601-0.39,1.172-0.91,1.669-1.535
				c1.305-1.559,1.947-3.649,2.568-5.671c0.371-1.205,0.721-2.343,1.2-3.365c0.62-1.332,1.481-2.308,2.305-2.61
				c1.566-0.523,3.186-0.393,4.9-0.256c0.72,0.059,1.464,0.118,2.241,0.135c0.006,0,0.012,0,0.018,0.001
				c4.746,0.271,10.804-1.693,13.225-6.634L219.446,286.194z"/>
		</g>
		<g>
			<path style="fill:#EBD2E1;" d="M311.332,310.621c-0.177,0-0.345-0.094-0.435-0.254c-1.855-3.288-5.207-3.037-8.756-2.777
				c-2.305,0.17-4.685,0.347-6.802-0.421c-6.039-1.596-7.996-8.262-9.291-12.673c-0.216-0.612-0.819-1.78-1.292-2.235
				c-0.144-0.137-0.192-0.346-0.124-0.532l4.712-12.881c0.047-0.129,0.146-0.232,0.271-0.287c0.124-0.055,0.269-0.055,0.395-0.001
				c5.74,2.448,8.028,9.195,7.725,14.428c-0.02,0.772-0.08,1.524-0.139,2.247c-0.139,1.693-0.257,3.156,0.193,4.525
				c0.158,0.409,0.809,1.127,2.101,1.728c0.962,0.451,2.069,0.792,3.241,1.153c2.111,0.65,4.294,1.322,5.997,2.739
				c1.628,1.296,2.641,3.064,2.703,4.722c0.008,0.23-0.142,0.436-0.364,0.5C311.423,310.616,311.377,310.621,311.332,310.621z
				 M304.947,306.449c1.867,0,3.645,0.279,5.095,1.39c-0.391-0.605-0.913-1.18-1.544-1.682c-1.558-1.296-3.644-1.938-5.66-2.561
				c-1.207-0.371-2.347-0.723-3.37-1.202c-1.324-0.616-2.305-1.477-2.62-2.3c-0.523-1.584-0.39-3.215-0.249-4.941
				c0.058-0.705,0.117-1.439,0.137-2.208c0.276-4.76-1.694-10.821-6.638-13.246l-4.422,12.087c0.563,0.674,1.104,1.781,1.323,2.403
				c1.239,4.221,3.101,10.561,8.639,12.026c1.957,0.708,4.23,0.541,6.43,0.377C303.029,306.522,304,306.449,304.947,306.449z"/>
		</g>
		<g>
			<path style="fill:#EBD2E1;" d="M220.183,232.524c-0.067,0-0.133-0.014-0.196-0.04c-5.734-2.441-8.02-9.181-7.72-14.412
				c0.017-0.803,0.078-1.56,0.137-2.291c0.136-1.68,0.253-3.13-0.203-4.489c-0.152-0.415-0.794-1.128-2.09-1.731
				c-0.96-0.45-2.066-0.79-3.237-1.15c-2.116-0.65-4.303-1.323-6.009-2.75c-1.618-1.287-2.633-3.051-2.707-4.711
				c-0.01-0.231,0.139-0.439,0.361-0.503c0.222-0.064,0.46,0.033,0.573,0.234c1.86,3.286,5.215,3.038,8.768,2.775
				c2.303-0.17,4.683-0.347,6.795,0.418c6.039,1.608,8,8.27,9.298,12.678c0.2,0.591,0.809,1.772,1.292,2.236
				c0.143,0.137,0.191,0.346,0.123,0.532l-4.718,12.875c-0.047,0.129-0.145,0.232-0.27,0.287
				C220.319,232.51,220.251,232.524,220.183,232.524z M199.965,203.218c0.39,0.602,0.91,1.172,1.535,1.669
				c1.56,1.304,3.649,1.947,5.67,2.568c1.205,0.371,2.344,0.721,3.366,1.2c1.333,0.62,2.309,1.482,2.61,2.306
				c0.525,1.565,0.394,3.185,0.256,4.899c-0.058,0.721-0.118,1.465-0.135,2.241c0,0.006,0,0.012-0.001,0.018
				c-0.275,4.744,1.693,10.804,6.633,13.224l4.427-12.081c-0.56-0.669-1.109-1.772-1.325-2.409
				c-1.241-4.212-3.107-10.55-8.644-12.026c-1.953-0.705-4.226-0.537-6.422-0.374C205.082,204.666,202.152,204.882,199.965,203.218z
				 M212.767,218.091h0.01H212.767z"/>
		</g>
		<g>
			<path style="fill:#EBD2E1;" d="M293.288,242.807c-0.113,0-0.227-0.039-0.317-0.113l-9.535-7.839
				c-0.106-0.088-0.172-0.215-0.182-0.352c-0.01-0.137,0.037-0.271,0.13-0.372c3.806-4.165,10.243-4.099,14.609-2.274
				c0.65,0.246,1.272,0.522,1.87,0.788c1.392,0.619,2.593,1.154,3.88,1.179c0.383-0.012,1.173-0.348,2.057-1.254
				c0.667-0.681,1.286-1.518,1.94-2.403c1.185-1.604,2.409-3.262,4.129-4.291c1.595-1.003,3.412-1.341,4.855-0.893
				c0.221,0.068,0.366,0.278,0.352,0.509c-0.015,0.229-0.185,0.421-0.411,0.461c-3.314,0.592-4.063,3.363-4.928,6.572
				c-0.543,2.012-1.104,4.093-2.395,5.669c-3.167,4.675-9.424,4.351-13.571,4.135c0,0,0,0-0.001,0c-0.563,0-1.743,0.165-2.256,0.426
				C293.442,242.789,293.365,242.807,293.288,242.807z M284.489,234.426l8.883,7.303c0.744-0.272,1.829-0.4,2.42-0.4
				c0.003,0,0.005,0,0.007,0c3.941,0.206,9.865,0.512,12.743-3.732c1.181-1.447,1.714-3.423,2.23-5.333
				c0.648-2.402,1.313-4.865,3.217-6.266c-0.535,0.158-1.076,0.403-1.596,0.73c-1.558,0.934-2.722,2.509-3.848,4.033
				c-0.677,0.915-1.315,1.779-2.029,2.509c-0.927,0.949-1.961,1.53-2.768,1.555c-1.514-0.029-2.862-0.629-4.292-1.265
				c-0.581-0.259-1.186-0.528-1.833-0.773C293.692,231.143,288.01,231.006,284.489,234.426z"/>
		</g>
		<g>
			<path style="fill:#EBD2E1;" d="M193.887,288.112c-0.462,0-0.908-0.062-1.323-0.187c-0.222-0.066-0.368-0.276-0.355-0.507
				c0.013-0.232,0.183-0.423,0.411-0.464c3.314-0.596,4.062-3.37,4.929-6.583c0.543-2.011,1.104-4.09,2.389-5.665
				c3.178-4.67,9.438-4.348,13.578-4.138c0.555-0.003,1.727-0.157,2.258-0.427c0.178-0.089,0.391-0.065,0.544,0.061l9.528,7.843
				c0.105,0.087,0.171,0.214,0.181,0.351c0.01,0.137-0.037,0.272-0.129,0.372c-3.799,4.159-10.226,4.096-14.595,2.275
				c-0.674-0.253-1.303-0.532-1.907-0.8c-1.381-0.613-2.573-1.144-3.852-1.161c-0.387,0.005-1.169,0.335-2.056,1.244
				c-0.666,0.68-1.283,1.516-1.937,2.401c-1.186,1.606-2.412,3.268-4.14,4.297C196.281,287.736,195.035,288.112,193.887,288.112z
				 M210.499,271.469c-3.527,0-7.54,0.574-9.76,3.835c-1.176,1.444-1.709,3.418-2.224,5.327c-0.647,2.4-1.311,4.86-3.206,6.266
				c0.531-0.158,1.067-0.402,1.582-0.725c1.565-0.932,2.73-2.511,3.857-4.038c0.675-0.915,1.313-1.778,2.026-2.507
				c0.932-0.956,1.968-1.534,2.771-1.545c1.498,0.021,2.838,0.616,4.258,1.247c0.589,0.262,1.203,0.534,1.86,0.781
				c0.005,0.002,0.011,0.004,0.017,0.006c3.917,1.636,9.6,1.774,13.113-1.643l-8.876-7.307c-0.741,0.272-1.823,0.416-2.431,0.401
				C212.576,271.521,211.559,271.469,210.499,271.469z"/>
		</g>
		<g>
			<path style="fill:#EBD2E1;" d="M286.834,319.307c-0.01,0-0.021,0-0.03-0.001c-0.23-0.014-0.421-0.184-0.462-0.411
				c-0.592-3.314-3.364-4.063-6.573-4.928c-2.012-0.543-4.092-1.105-5.669-2.394c-4.674-3.167-4.35-9.429-4.134-13.572
				c-0.001-0.563-0.167-1.744-0.427-2.258c-0.09-0.177-0.066-0.39,0.059-0.543l7.839-9.535c0.088-0.107,0.215-0.172,0.352-0.182
				c0.137-0.008,0.271,0.038,0.372,0.13c4.164,3.806,4.099,10.241,2.276,14.61c-0.246,0.649-0.522,1.269-0.787,1.864
				c-0.621,1.394-1.156,2.598-1.181,3.886c0.012,0.383,0.347,1.172,1.253,2.056c0.681,0.668,1.518,1.287,2.406,1.942
				c1.603,1.185,3.26,2.408,4.288,4.127c1.003,1.595,1.34,3.414,0.895,4.856C287.247,319.165,287.052,319.307,286.834,319.307z
				 M270.563,295.602c0.273,0.746,0.401,1.836,0.401,2.426c-0.204,3.945-0.512,9.867,3.732,12.745
				c1.447,1.181,3.423,1.713,5.333,2.228c2.401,0.648,4.864,1.313,6.266,3.216c-0.158-0.535-0.403-1.076-0.729-1.595
				c-0.933-1.557-2.508-2.721-4.031-3.846c-0.916-0.677-1.781-1.316-2.511-2.032c-0.949-0.926-1.53-1.961-1.554-2.766
				c0.028-1.515,0.63-2.866,1.267-4.297c0.258-0.58,0.526-1.184,0.772-1.828c1.641-3.932,1.779-9.615-1.642-13.135L270.563,295.602z
				"/>
		</g>
		<g>
			<path style="fill:#EBD2E1;" d="M232.692,225.825c-0.124,0-0.245-0.046-0.337-0.131c-4.159-3.798-4.095-10.226-2.275-14.595
				c0.253-0.674,0.532-1.303,0.8-1.907c0.613-1.381,1.143-2.573,1.161-3.852c-0.005-0.387-0.334-1.169-1.244-2.056
				c-0.679-0.666-1.516-1.283-2.401-1.937c-1.606-1.186-3.268-2.411-4.297-4.139c-0.997-1.586-1.336-3.402-0.9-4.848
				c0.066-0.221,0.27-0.365,0.507-0.355c0.231,0.013,0.422,0.183,0.463,0.411c0.596,3.314,3.37,4.062,6.583,4.929
				c2.011,0.542,4.09,1.104,5.665,2.39c4.668,3.177,4.349,9.436,4.138,13.578c-0.005,0.555,0.157,1.728,0.426,2.258
				c0.09,0.177,0.066,0.39-0.061,0.543l-7.842,9.528c-0.087,0.106-0.214,0.172-0.351,0.182
				C232.715,225.825,232.703,225.825,232.692,225.825z M224.226,195.105c0.158,0.532,0.401,1.068,0.725,1.582
				c0.932,1.565,2.511,2.73,4.038,3.856c0.915,0.675,1.779,1.313,2.507,2.027c0.956,0.933,1.534,1.969,1.545,2.771
				c-0.021,1.498-0.616,2.838-1.247,4.258c-0.262,0.589-0.535,1.203-0.781,1.86c-0.002,0.005-0.004,0.011-0.007,0.017
				c-1.635,3.917-1.774,9.598,1.645,13.113l7.306-8.876c-0.272-0.74-0.407-1.828-0.4-2.431c0.2-3.938,0.502-9.86-3.736-12.747
				c-1.444-1.177-3.419-1.709-5.328-2.224C228.091,197.664,225.631,197,224.226,195.105z M230.544,211.284h0.01H230.544z"/>
		</g>
		<g>
			<path style="fill:#EBD2E1;" d="M260.244,220.59c-0.12,0-0.236-0.043-0.327-0.122c-0.104-0.09-0.166-0.219-0.172-0.355
				c-0.253-5.636,4.344-10.14,8.722-11.939c0.633-0.285,1.267-0.528,1.876-0.762c1.424-0.547,2.653-1.019,3.581-1.913
				c0.263-0.279,0.584-1.075,0.568-2.341c-0.009-0.952-0.164-1.982-0.328-3.072c-0.296-1.971-0.603-4.009-0.115-5.953
				c0.419-1.837,1.468-3.361,2.802-4.065c0.205-0.107,0.455-0.062,0.608,0.111c0.152,0.173,0.167,0.428,0.035,0.617
				c-1.925,2.762-0.494,5.251,1.163,8.132c1.039,1.807,2.113,3.674,2.316,5.701c1.066,5.546-3.592,9.743-6.673,12.52
				c-0.397,0.398-1.117,1.352-1.295,1.898c-0.063,0.189-0.23,0.323-0.427,0.343l-12.286,1.199
				C260.276,220.589,260.26,220.59,260.244,220.59z M275.634,192.721c-0.267,0.49-0.476,1.046-0.612,1.644
				c-0.441,1.761-0.15,3.698,0.132,5.571c0.169,1.125,0.329,2.189,0.339,3.21c0.016,1.327-0.305,2.469-0.858,3.056
				c-1.091,1.051-2.471,1.581-3.933,2.143c-0.593,0.228-1.209,0.464-1.839,0.747c-3.939,1.62-8.057,5.541-8.127,10.448l11.445-1.116
				c0.334-0.722,1.014-1.583,1.432-2c2.934-2.645,7.338-6.615,6.373-11.651c-0.189-1.857-1.209-3.631-2.195-5.346
				C276.55,197.269,275.278,195.057,275.634,192.721z M272.53,218.891h0.01H272.53z"/>
		</g>
		<g>
			<path style="fill:#EBD2E1;" d="M233.327,322.429c-0.139,0-0.276-0.058-0.373-0.167c-0.154-0.173-0.169-0.429-0.037-0.618
				c1.922-2.765,0.49-5.256-1.169-8.141c-1.038-1.805-2.112-3.672-2.316-5.695c-1.055-5.549,3.598-9.748,6.676-12.526
				c0.396-0.389,1.111-1.335,1.295-1.898c0.062-0.188,0.229-0.323,0.427-0.343l12.284-1.192c0.133-0.011,0.272,0.03,0.375,0.12
				c0.104,0.09,0.166,0.219,0.172,0.355c0.255,5.627-4.336,10.127-8.712,11.93c-0.655,0.298-1.297,0.545-1.914,0.782
				c-1.41,0.543-2.628,1.012-3.545,1.903c-0.269,0.277-0.59,1.063-0.574,2.334c0.009,0.95,0.164,1.978,0.329,3.065
				c0.298,1.976,0.606,4.018,0.111,5.967c-0.417,1.827-1.461,3.351-2.792,4.064C233.489,322.409,233.408,322.429,233.327,322.429z
				 M238.227,294.007c-0.331,0.714-1.005,1.58-1.436,2.003c-2.927,2.643-7.328,6.615-6.372,11.655
				c0.189,1.852,1.208,3.625,2.194,5.34c1.239,2.154,2.51,4.363,2.163,6.697c0.264-0.488,0.471-1.04,0.606-1.632
				c0.448-1.766,0.155-3.706-0.128-5.583c-0.17-1.124-0.33-2.184-0.339-3.204c-0.017-1.336,0.308-2.477,0.867-3.052
				c1.073-1.044,2.443-1.571,3.892-2.129c0.602-0.233,1.229-0.473,1.868-0.764c0.006-0.003,0.012-0.005,0.017-0.008
				c3.926-1.613,8.042-5.532,8.11-10.436L238.227,294.007z"/>
		</g>
		<g>
			<path style="fill:#EBD2E1;" d="M306.327,281.592c-4.754,0-8.406-4.053-10.906-6.828c-0.398-0.397-1.351-1.115-1.898-1.296
				c-0.188-0.061-0.322-0.228-0.342-0.426l-1.199-12.285c-0.013-0.137,0.03-0.273,0.12-0.376c0.09-0.104,0.219-0.166,0.355-0.172
				c5.599-0.26,10.139,4.343,11.94,8.722c0.284,0.633,0.527,1.267,0.762,1.876c0.547,1.424,1.019,2.653,1.912,3.581
				c0.279,0.264,1.11,0.573,2.341,0.567c0.954-0.009,1.983-0.164,3.074-0.327c1.97-0.297,4.006-0.604,5.952-0.115
				c1.837,0.419,3.36,1.468,4.065,2.802c0.107,0.204,0.061,0.455-0.111,0.608c-0.172,0.153-0.426,0.169-0.617,0.035
				c-2.761-1.925-5.25-0.494-8.132,1.163c-1.807,1.038-3.675,2.112-5.701,2.315C307.389,281.543,306.851,281.592,306.327,281.592z
				 M294.146,272.644c0.722,0.336,1.582,1.015,1.999,1.432c2.644,2.934,6.616,7.345,11.651,6.373
				c1.857-0.188,3.631-1.208,5.347-2.194c2.156-1.24,4.367-2.509,6.704-2.156c-0.49-0.267-1.046-0.476-1.644-0.612
				c-1.761-0.441-3.698-0.149-5.57,0.131c-1.126,0.17-2.19,0.329-3.211,0.339c-1.348,0.001-2.47-0.304-3.057-0.857
				c-1.05-1.09-1.58-2.471-2.142-3.933c-0.227-0.593-0.464-1.209-0.747-1.839c-1.62-3.939-5.541-8.056-10.447-8.127L294.146,272.644
				z"/>
		</g>
		<g>
			<path style="fill:#EBD2E1;" d="M217.248,250.24c-5.417,0.001-9.726-4.462-11.48-8.722c-0.298-0.656-0.545-1.299-0.783-1.916
				c-0.543-1.409-1.011-2.626-1.903-3.543c-0.276-0.269-1.025-0.567-2.334-0.574c-0.95,0.009-1.978,0.164-3.066,0.328
				c-1.974,0.299-4.017,0.607-5.966,0.111c-1.827-0.416-3.351-1.461-4.064-2.791c-0.109-0.204-0.065-0.456,0.108-0.609
				c0.173-0.153,0.428-0.17,0.618-0.037c2.763,1.921,5.255,0.488,8.14-1.17c1.806-1.038,3.673-2.111,5.696-2.315
				c5.548-1.059,9.749,3.597,12.527,6.675c0.388,0.396,1.333,1.11,1.898,1.295c0.189,0.063,0.323,0.23,0.342,0.428l1.192,12.283
				c0.013,0.136-0.03,0.271-0.12,0.375c-0.09,0.104-0.218,0.166-0.355,0.172C217.547,250.236,217.397,250.24,217.248,250.24z
				 M200.832,234.485c1.295,0,2.396,0.322,2.957,0.868c1.044,1.073,1.571,2.442,2.129,3.892c0.232,0.602,0.473,1.229,0.764,1.868
				c0.002,0.006,0.005,0.012,0.007,0.017c1.614,3.927,5.533,8.042,10.436,8.11l-1.111-11.442c-0.716-0.331-1.581-1.005-2.003-1.436
				c-2.643-2.927-6.61-7.327-11.655-6.371c-1.854,0.188-3.626,1.208-5.341,2.194c-2.154,1.239-4.364,2.517-6.697,2.162
				c0.488,0.264,1.039,0.472,1.631,0.606c1.766,0.447,3.706,0.153,5.583-0.128c1.124-0.17,2.185-0.33,3.205-0.34
				C200.769,234.486,200.801,234.485,200.832,234.485z"/>
		</g>
		<g>
			<g>
				<path style="fill:#897FA4;" d="M266.448,302.67c-3.73,0.949-7.635,1.449-11.657,1.449c-26.145,0-47.336-21.191-47.336-47.328
					c0-26.145,21.191-47.336,47.336-47.336c4.022,0,7.927,0.5,11.657,1.449c-20.508,5.187-35.679,23.764-35.679,45.887
					C230.769,278.906,245.94,297.482,266.448,302.67z"/>
			</g>
			<g>
				<path style="fill:#EBD2E1;" d="M254.791,304.618c-26.377,0-47.836-21.455-47.836-47.827c0-26.377,21.459-47.836,47.836-47.836
					c3.999,0,7.962,0.493,11.78,1.464c0.222,0.056,0.377,0.256,0.377,0.485c0,0.229-0.155,0.428-0.377,0.484
					c-20.785,5.257-35.302,23.927-35.302,45.403c0,21.47,14.517,40.137,35.302,45.395c0.222,0.056,0.377,0.255,0.377,0.484
					c0,0.229-0.155,0.428-0.377,0.484C262.755,304.126,258.791,304.618,254.791,304.618z M254.791,209.955
					c-25.825,0-46.836,21.01-46.836,46.836c0,25.82,21.011,46.827,46.836,46.827c3.253,0,6.481-0.332,9.621-0.989
					c-20.201-6.003-34.143-24.574-34.143-45.838c0-21.268,13.942-39.843,34.143-45.846
					C261.27,210.287,258.043,209.955,254.791,209.955z"/>
			</g>
			<g>
				<path style="fill:#403E4D;" d="M302.127,256.791c0,22.115-15.171,40.691-35.679,45.879
					c-20.508-5.187-35.679-23.764-35.679-45.879c0-22.123,15.171-40.7,35.679-45.887
					C286.956,216.091,302.127,234.667,302.127,256.791"/>
			</g>
			<g>
				<path style="fill:#EBD2E1;" d="M266.448,303.17c-0.041,0-0.082-0.005-0.123-0.016c-21.229-5.369-36.056-24.435-36.056-46.363
					c0-21.934,14.827-41.003,36.056-46.372c0.082-0.021,0.164-0.021,0.246,0c21.228,5.371,36.056,24.439,36.056,46.372
					c0,21.928-14.827,40.993-36.056,46.363C266.53,303.165,266.489,303.17,266.448,303.17z M266.448,211.42
					c-20.72,5.299-35.179,23.938-35.179,45.372c0,21.428,14.459,40.064,35.179,45.363c20.72-5.3,35.179-23.936,35.179-45.363
					C301.627,235.359,287.168,216.719,266.448,211.42z"/>
			</g>
		</g>
	</g>
	<g>
		<g>
			<path style="fill:#EBD2E1;" d="M228.608,459.939L228.608,459.939c-0.198,0-0.377-0.117-0.458-0.298l-2.74-6.214l-6.75,0.734
				c-0.198,0.019-0.389-0.075-0.487-0.247c-0.099-0.172-0.088-0.386,0.03-0.545l4.011-5.48l-4.011-5.479
				c-0.117-0.159-0.129-0.373-0.03-0.545c0.099-0.172,0.295-0.264,0.487-0.247l6.75,0.733l2.74-6.213
				c0.16-0.361,0.755-0.361,0.915,0l2.74,6.213l6.751-0.733c0.192-0.024,0.388,0.075,0.486,0.247c0.1,0.172,0.088,0.386-0.029,0.545
				l-4.011,5.479l4.011,5.48c0.117,0.159,0.129,0.373,0.029,0.545c-0.099,0.172-0.293,0.268-0.486,0.247l-6.751-0.734l-2.74,6.214
				C228.985,459.822,228.806,459.939,228.608,459.939z M225.72,452.39c0.196,0,0.377,0.115,0.458,0.298l2.43,5.512l2.43-5.512
				c0.088-0.199,0.291-0.32,0.512-0.295l5.987,0.651l-3.558-4.86c-0.129-0.176-0.129-0.414,0-0.59l3.558-4.86l-5.987,0.651
				c-0.227,0.022-0.424-0.097-0.512-0.295l-2.43-5.511l-2.43,5.511c-0.088,0.199-0.285,0.318-0.512,0.295l-5.987-0.651l3.558,4.86
				c0.129,0.176,0.129,0.414,0,0.59l-3.558,4.86l5.987-0.651C225.684,452.391,225.703,452.39,225.72,452.39z"/>
		</g>
		<g>
			<path style="fill:#EBD2E1;" d="M241.554,480.574c-4.504,0-4.512,7,0,7C246.058,487.574,246.066,480.574,241.554,480.574z"/>
		</g>
		<g>
			<path style="fill:#EBD2E1;" d="M235.994,465.338c-1.93,0-1.934,3,0,3C237.924,468.338,237.928,465.338,235.994,465.338z"/>
		</g>
		<g>
			<path style="fill:#EBD2E1;" d="M261.014,484.242c-1.93,0-1.934,3,0,3C262.944,487.242,262.947,484.242,261.014,484.242z"/>
		</g>
	</g>
	<g>
		<g>
			<path style="fill:#EBD2E1;" d="M24.614,334.944c-0.198,0-0.378-0.117-0.458-0.298l-2.74-6.214l-6.75,0.733
				c-0.201,0.021-0.388-0.075-0.487-0.247c-0.099-0.172-0.087-0.386,0.03-0.545l4.011-5.479l-4.011-5.479
				c-0.117-0.159-0.129-0.373-0.03-0.545c0.1-0.172,0.293-0.263,0.487-0.247l6.75,0.733l2.74-6.214c0.16-0.361,0.755-0.361,0.915,0
				l2.74,6.214l6.75-0.733c0.203-0.018,0.389,0.075,0.487,0.247c0.099,0.172,0.087,0.386-0.03,0.545l-4.011,5.479l4.011,5.479
				c0.117,0.159,0.129,0.373,0.03,0.545c-0.099,0.173-0.291,0.272-0.487,0.247l-6.75-0.733l-2.74,6.214
				C24.991,334.826,24.812,334.944,24.614,334.944z M21.726,327.395c0.196,0,0.377,0.115,0.458,0.298l2.43,5.512l2.43-5.512
				c0.087-0.199,0.286-0.319,0.512-0.295l5.987,0.651l-3.557-4.86c-0.129-0.176-0.129-0.414,0-0.59l3.557-4.86l-5.987,0.651
				c-0.226,0.024-0.424-0.096-0.512-0.295l-2.43-5.512l-2.43,5.512c-0.088,0.199-0.284,0.32-0.512,0.295l-5.987-0.651l3.557,4.86
				c0.129,0.176,0.129,0.414,0,0.59l-3.557,4.86l5.987-0.651C21.691,327.396,21.709,327.395,21.726,327.395z"/>
		</g>
		<g>
			<path style="fill:#EBD2E1;" d="M35.127,344.578c-4.504,0-4.512,7,0,7C39.631,351.578,39.638,344.578,35.127,344.578z"/>
		</g>
		<g>
			<path style="fill:#EBD2E1;" d="M44.578,307.659c-1.93,0-1.934,3,0,3C46.509,310.659,46.512,307.659,44.578,307.659z"/>
		</g>
		<g>
			<path style="fill:#EBD2E1;" d="M47.358,330.455c-1.93,0-1.933,3,0,3C49.289,333.455,49.292,330.455,47.358,330.455z"/>
		</g>
		<g>
			<path style="fill:#EBD2E1;" d="M60.146,319.335c-1.93,0-1.934,3,0,3C62.076,322.335,62.08,319.335,60.146,319.335z"/>
		</g>
	</g>
	<g>
		<g>
			<path style="fill:#EBD2E1;" d="M322.724,90.62L322.724,90.62c-0.198,0-0.378-0.117-0.458-0.298l-2.738-6.213l-6.752,0.734
				c-0.199,0.018-0.388-0.076-0.486-0.247c-0.1-0.171-0.088-0.385,0.029-0.545l4.011-5.479l-4.011-5.479
				c-0.117-0.16-0.129-0.374-0.029-0.545c0.099-0.171,0.288-0.271,0.486-0.247l6.752,0.734l2.738-6.213
				c0.16-0.362,0.757-0.362,0.915,0l2.74,6.213l6.751-0.734c0.195-0.025,0.387,0.076,0.486,0.247s0.088,0.385-0.029,0.545
				l-4.011,5.479l4.011,5.479c0.117,0.16,0.129,0.374,0.029,0.545c-0.1,0.171-0.29,0.266-0.486,0.247l-6.751-0.734l-2.74,6.213
				C323.102,90.503,322.923,90.62,322.724,90.62z M319.838,83.072c0.196,0,0.377,0.116,0.457,0.298l2.43,5.511l2.431-5.511
				c0.087-0.199,0.294-0.322,0.511-0.295l5.987,0.651l-3.557-4.86c-0.129-0.176-0.129-0.415,0-0.591l3.557-4.86l-5.987,0.651
				c-0.218,0.022-0.424-0.097-0.511-0.295l-2.431-5.511l-2.43,5.511c-0.088,0.199-0.3,0.318-0.511,0.295l-5.988-0.651l3.558,4.86
				c0.129,0.176,0.129,0.415,0,0.591l-3.558,4.86l5.988-0.651C319.802,83.073,319.82,83.072,319.838,83.072z"/>
		</g>
		<g>
			<path style="fill:#EBD2E1;" d="M299.543,45.477c-4.504,0-4.512,7,0,7C304.047,52.477,304.055,45.477,299.543,45.477z"/>
		</g>
		<g>
			<path style="fill:#EBD2E1;" d="M308.995,24.682c-1.93,0-1.934,3,0,3C310.925,27.682,310.928,24.682,308.995,24.682z"/>
		</g>
		<g>
			<path style="fill:#EBD2E1;" d="M319.003,46.921c-1.93,0-1.934,3,0,3C320.933,49.921,320.936,46.921,319.003,46.921z"/>
		</g>
		<g>
			<path style="fill:#EBD2E1;" d="M285.087,34.133c-1.93,0-1.934,3,0,3C287.018,37.133,287.021,34.133,285.087,34.133z"/>
		</g>
	</g>
	<g>
		<g>
			<polygon style="fill:#D69EBF;" points="438.34,151.94 441.037,177.564 448.308,174.108 444.852,181.379 458.45,184.076 
				444.852,186.774 448.308,194.045 441.037,190.588 438.34,216.213 435.642,190.588 428.371,194.045 431.827,186.774 
				418.229,184.076 431.827,181.379 428.371,174.108 435.642,177.564 			"/>
		</g>
		<g>
			<path style="fill:#EBD2E1;" d="M458.494,224.504c-1.93,0-1.934,3,0,3C460.424,227.504,460.427,224.504,458.494,224.504z"/>
		</g>
		<g>
			<path style="fill:#EBD2E1;" d="M473.506,213.385c-1.931,0-1.934,3,0,3C475.436,216.385,475.439,213.385,473.506,213.385z"/>
		</g>
		<g>
			<path style="fill:#EBD2E1;" d="M470.725,232.844c-1.93,0-1.934,3,0,3C472.656,235.844,472.659,232.844,470.725,232.844z"/>
		</g>
	</g>
	<g>
		<g>
			<path style="fill:#EBD2E1;" d="M72.546,175.951c-0.198,0-0.377-0.117-0.457-0.298l-2.74-6.213l-6.75,0.734
				c-0.202,0.021-0.388-0.076-0.487-0.247c-0.099-0.171-0.087-0.385,0.03-0.545l4.011-5.479l-4.011-5.479
				c-0.117-0.16-0.129-0.374-0.03-0.545c0.099-0.171,0.286-0.265,0.487-0.247l6.75,0.734l2.74-6.213c0.16-0.362,0.755-0.362,0.915,0
				l2.74,6.213l6.75-0.734c0.202-0.018,0.389,0.076,0.487,0.247c0.099,0.171,0.087,0.385-0.03,0.545l-4.011,5.479l4.011,5.479
				c0.117,0.16,0.129,0.374,0.03,0.545c-0.099,0.172-0.288,0.27-0.487,0.247l-6.75-0.734l-2.74,6.213
				C72.924,175.834,72.744,175.951,72.546,175.951z M69.659,168.403c0.196,0,0.377,0.116,0.458,0.298l2.43,5.511l2.43-5.511
				c0.088-0.199,0.283-0.32,0.512-0.295l5.987,0.651l-3.558-4.859c-0.129-0.176-0.129-0.415,0-0.591l3.558-4.86l-5.987,0.651
				c-0.229,0.024-0.424-0.097-0.512-0.295l-2.43-5.511l-2.43,5.511c-0.088,0.199-0.287,0.321-0.512,0.295l-5.987-0.651l3.558,4.86
				c0.129,0.176,0.129,0.415,0,0.591l-3.558,4.859l5.987-0.651C69.623,168.404,69.641,168.403,69.659,168.403z"/>
		</g>
		<g>
			<path style="fill:#EBD2E1;" d="M81.781,184.559c-1.93,0-1.934,3,0,3C83.711,187.559,83.715,184.559,81.781,184.559z"/>
		</g>
		<g>
			<path style="fill:#EBD2E1;" d="M62.544,197.428c-1.93,0-1.934,3,0,3C64.475,200.428,64.478,197.428,62.544,197.428z"/>
		</g>
	</g>
	<g>
		<polygon style="fill:#D69EBF;" points="96.385,415.191 98.152,431.978 102.915,429.714 100.651,434.477 109.559,436.244 
			100.651,438.011 102.915,442.774 98.152,440.51 96.385,457.296 94.618,440.51 89.855,442.774 92.119,438.011 83.211,436.244 
			92.119,434.477 89.855,429.714 94.618,431.978 		"/>
	</g>
	<g>
		<polygon style="fill:#D69EBF;" points="211.604,12.45 213.371,29.236 218.134,26.972 215.87,31.735 224.778,33.502 215.87,35.269 
			218.134,40.032 213.371,37.768 211.604,54.555 209.837,37.768 205.074,40.032 207.338,35.269 198.43,33.502 207.338,31.735 
			205.074,26.972 209.837,29.236 		"/>
	</g>
	<g>
		<path style="fill:#D69EBF;" d="M361.499,37.815c-1.574-0.894-3.353-1.341-5.337-1.341c-1.078,0-2.078,0.171-2.998,0.512
			c-0.922,0.339-1.73,0.815-2.424,1.424c-0.694,0.609-1.254,1.339-1.68,2.19c0.057-2.154,0.377-4.005,0.957-5.55
			c0.581-1.545,1.396-2.721,2.446-3.529c1.047-0.808,2.268-1.213,3.657-1.213c1.389,0,2.664,0.348,3.827,1.043
			c0.557,0.334,1.052,0.725,1.486,1.18c0.379,0.398,0.889,0.595,1.396,0.595c0.521,0,1.04-0.206,1.429-0.611
			c0.699-0.732,0.732-1.875,0.071-2.642c-0.803-0.934-1.747-1.702-2.83-2.306c-1.602-0.893-3.368-1.339-5.294-1.339
			c-2.353,0-4.389,0.652-6.103,1.955c-1.716,1.306-3.048,3.247-3.998,5.828c-0.95,2.578-1.424,5.783-1.424,9.61
			c0,2.806,0.46,5.216,1.382,7.23c0.922,2.012,2.211,3.55,3.87,4.614c1.659,1.062,3.595,1.595,5.804,1.595
			c2.071,0,3.92-0.469,5.55-1.405c1.63-0.934,2.927-2.194,3.891-3.785c0.965-1.585,1.446-3.344,1.446-5.273
			c0-1.898-0.46-3.614-1.382-5.145C364.319,39.919,363.073,38.706,361.499,37.815z M361.307,49.828
			c-0.595,0.993-1.382,1.78-2.361,2.36c-0.976,0.581-2.048,0.872-3.211,0.872c-1.161,0-2.225-0.299-3.188-0.893
			c-0.965-0.595-1.744-1.382-2.339-2.36c-0.595-0.979-0.893-2.048-0.893-3.211c0-1.19,0.292-2.261,0.872-3.211
			c0.581-0.948,1.36-1.714,2.339-2.297c0.979-0.581,2.062-0.87,3.254-0.87c1.161,0,2.223,0.289,3.188,0.87
			c0.965,0.583,1.744,1.356,2.339,2.318c0.597,0.965,0.893,2.029,0.893,3.19C362.201,47.759,361.904,48.835,361.307,49.828z"/>
	</g>
	<g>
		<path style="fill:#EBD2E1;" d="M143.145,417.579h-13.059c-0.827,0-1.608-0.361-2.144-0.992c-0.535-0.631-0.765-1.459-0.63-2.273
			l0.035-0.206c0.167-0.93,0.479-1.818,0.927-2.631c0.447-0.817,1.081-1.605,1.884-2.34c0.793-0.726,1.813-1.425,3.031-2.078
			c0.843-0.489,1.661-0.935,2.416-1.314c0.738-0.375,1.396-0.751,1.955-1.115c0.531-0.348,0.949-0.719,1.241-1.102
			c0.262-0.342,0.389-0.743,0.389-1.225c0-0.454-0.123-0.866-0.377-1.261c-0.252-0.395-0.629-0.727-1.122-0.988
			c-0.497-0.258-1.124-0.39-1.86-0.39c-0.622,0-1.18,0.083-1.658,0.246c-0.495,0.169-0.956,0.386-1.374,0.645
			c-0.42,0.262-0.806,0.555-1.144,0.87c-0.367,0.342-0.835,0.497-1.315,0.488c-0.485-0.022-0.93-0.235-1.253-0.599l-0.782-0.884
			c-0.329-0.37-0.486-0.847-0.441-1.341c0.045-0.489,0.294-0.944,0.684-1.248l0.079-0.061l0.091-0.07
			c0.537-0.408,1.195-0.805,1.958-1.179c0.758-0.374,1.64-0.698,2.62-0.963c0.981-0.265,2.067-0.399,3.227-0.399
			c1.618,0,3.042,0.282,4.234,0.839c1.206,0.563,2.146,1.349,2.794,2.336c0.646,0.991,0.973,2.136,0.973,3.405
			c0,0.989-0.203,1.877-0.604,2.638c-0.386,0.733-0.877,1.392-1.46,1.957c-0.57,0.554-1.187,1.038-1.833,1.437
			c-0.629,0.387-1.229,0.73-1.795,1.032c-0.954,0.461-1.733,0.871-2.402,1.266c-0.67,0.395-1.237,0.778-1.686,1.143
			c-0.444,0.357-0.821,0.733-1.121,1.119c-0.155,0.199-0.296,0.41-0.423,0.637h9.945c0.982,0,1.78,0.798,1.78,1.778v1.045
			C144.925,416.78,144.126,417.579,143.145,417.579z M135.831,398.663c0.899,0,1.682,0.17,2.325,0.505
			c0.65,0.345,1.154,0.793,1.499,1.334c0.355,0.55,0.536,1.156,0.536,1.8c0,0.699-0.2,1.315-0.594,1.832
			c-0.361,0.473-0.862,0.921-1.489,1.332c-0.589,0.385-1.279,0.778-2.05,1.17c-0.739,0.372-1.54,0.808-2.38,1.296
			c-1.16,0.622-2.112,1.273-2.844,1.943c-0.721,0.66-1.287,1.36-1.683,2.083c-0.396,0.719-0.672,1.504-0.821,2.336l-0.027,0.159
			c-0.09,0.547,0.058,1.08,0.402,1.486c0.345,0.406,0.849,0.64,1.381,0.64h13.059c0.43,0,0.78-0.35,0.78-0.78v-1.045
			c0-0.429-0.35-0.778-0.78-0.778h-10.737c-0.166,0-0.321-0.083-0.414-0.221c-0.093-0.138-0.111-0.313-0.049-0.466
			c0.239-0.593,0.53-1.104,0.89-1.565c0.347-0.446,0.778-0.878,1.282-1.283c0.486-0.393,1.095-0.807,1.807-1.226
			c0.692-0.408,1.496-0.832,2.457-1.296c0.532-0.283,1.114-0.617,1.723-0.992c0.584-0.36,1.143-0.799,1.661-1.303
			c0.507-0.492,0.935-1.065,1.272-1.705c0.324-0.615,0.488-1.347,0.488-2.172c0-1.072-0.272-2.033-0.81-2.857
			c-0.544-0.829-1.345-1.495-2.38-1.978c-1.058-0.494-2.34-0.745-3.811-0.745c-1.072,0-2.07,0.123-2.966,0.364
			c-0.918,0.248-1.738,0.55-2.439,0.896c-0.705,0.346-1.309,0.708-1.794,1.078l-0.167,0.128c-0.17,0.132-0.277,0.327-0.297,0.546
			c-0.02,0.216,0.049,0.424,0.193,0.587l0.782,0.884c0.142,0.159,0.338,0.253,0.552,0.263c0.219,0.019,0.419-0.065,0.576-0.211
			c0.396-0.369,0.833-0.702,1.309-0.998c0.481-0.299,1.012-0.548,1.578-0.741C134.431,398.764,135.098,398.663,135.831,398.663z"/>
	</g>
	<g>
		<path style="fill:#FBF2FF;" d="M181.461,76.084c-0.826-1.638-1.93-2.928-3.314-3.874c-1.384-0.944-2.973-1.416-4.771-1.416
			c-1.796,0-3.391,0.473-4.787,1.416c-1.396,0.946-2.502,2.236-3.314,3.874c-0.814,1.64-1.222,3.511-1.222,5.615
			s0.408,3.975,1.222,5.615c0.812,1.638,1.918,2.924,3.314,3.856c1.396,0.934,2.991,1.4,4.787,1.4c1.798,0,3.387-0.467,4.771-1.4
			c1.384-0.932,2.488-2.218,3.314-3.856c0.826-1.64,1.238-3.511,1.238-5.615S182.287,77.724,181.461,76.084z M177.983,85.402
			c-0.448,1.068-1.073,1.91-1.875,2.527c-0.8,0.617-1.711,0.925-2.731,0.925c-1.043,0-1.96-0.302-2.75-0.907
			c-0.787-0.605-1.414-1.441-1.875-2.51c-0.461-1.067-0.69-2.313-0.69-3.738s0.223-2.677,0.674-3.756
			c0.448-1.08,1.074-1.922,1.875-2.527c0.8-0.607,1.711-0.909,2.732-0.909c1.043,0,1.966,0.308,2.766,0.925
			c0.802,0.619,1.427,1.461,1.875,2.528c0.451,1.067,0.674,2.313,0.674,3.738C178.656,83.099,178.433,84.333,177.983,85.402z"/>
	</g>
	<g>
		<path style="fill:#EBD2E1;" d="M244.971,76.65c-1.753,0-3.338-0.321-4.712-0.955c-0.816-0.377-1.548-0.851-2.179-1.408
			c-0.428-0.377-0.682-0.903-0.716-1.479c-0.034-0.589,0.164-1.155,0.559-1.595c0.817-0.914,2.168-0.992,3.09-0.2
			c0.269,0.232,0.57,0.44,0.896,0.62c0.774,0.427,1.782,0.644,2.995,0.644c1.339,0,2.386-0.291,3.111-0.864
			c0.7-0.553,1.041-1.379,1.041-2.524c0-1.2-0.383-2.108-1.171-2.777c-0.803-0.682-2.044-1.028-3.69-1.028
			c-0.376,0-0.73-0.146-0.997-0.412c-0.268-0.268-0.414-0.623-0.414-0.999v-1.077c0-0.778,0.633-1.411,1.411-1.411h0.102
			c1.371,0,2.428-0.323,3.139-0.96c0.705-0.631,1.048-1.408,1.048-2.375c0-0.634-0.135-1.133-0.413-1.523
			c-0.285-0.398-0.663-0.692-1.152-0.898c-0.511-0.216-1.131-0.326-1.847-0.326c-1.026,0-1.95,0.238-2.747,0.707
			c-0.337,0.199-0.648,0.429-0.925,0.683c-0.893,0.823-2.283,0.781-3.102-0.095c-0.381-0.409-0.591-0.942-0.591-1.5
			c0-0.607,0.256-1.186,0.701-1.588c0.237-0.217,0.507-0.431,0.799-0.634c0.817-0.569,1.779-1.019,2.858-1.334
			c1.075-0.315,2.234-0.475,3.445-0.475c1.498,0,2.865,0.267,4.063,0.794c1.216,0.538,2.176,1.31,2.855,2.294
			c0.686,0.993,1.032,2.171,1.032,3.501c0,0.936-0.196,1.845-0.583,2.703c-0.389,0.862-0.932,1.595-1.614,2.176
			c-0.294,0.25-0.614,0.465-0.958,0.642c0.412,0.191,0.796,0.429,1.148,0.713c0.754,0.608,1.352,1.392,1.777,2.328c0,0,0,0,0,0.001
			c0.422,0.932,0.636,1.971,0.636,3.09c0,1.511-0.38,2.852-1.13,3.985c-0.742,1.123-1.792,2.008-3.121,2.63
			C248.308,76.339,246.746,76.65,244.971,76.65z M239.559,71.469c-0.323,0-0.643,0.132-0.874,0.392
			c-0.232,0.259-0.341,0.568-0.322,0.889c0.018,0.308,0.153,0.587,0.38,0.787c0.558,0.494,1.209,0.914,1.936,1.25
			c1.241,0.573,2.686,0.863,4.292,0.863c1.627,0,3.047-0.279,4.221-0.828c1.16-0.544,2.072-1.31,2.711-2.277
			c0.64-0.967,0.964-2.122,0.964-3.434c0-0.976-0.184-1.876-0.546-2.677l0,0c-0.36-0.794-0.863-1.455-1.495-1.964
			c-0.625-0.503-1.375-0.832-2.229-0.976c-0.24-0.041-0.415-0.247-0.417-0.49c-0.002-0.243,0.172-0.451,0.41-0.495
			c0.785-0.143,1.466-0.457,2.024-0.933c0.569-0.485,1.023-1.099,1.351-1.826c0.329-0.728,0.495-1.499,0.495-2.292
			c0-1.139-0.279-2.099-0.855-2.933c-0.573-0.831-1.393-1.486-2.436-1.948c-1.069-0.47-2.301-0.708-3.659-0.708
			c-1.116,0-2.181,0.146-3.164,0.435c-0.976,0.285-1.84,0.687-2.568,1.195c-0.253,0.175-0.485,0.359-0.698,0.553
			c-0.241,0.218-0.373,0.519-0.373,0.848c0,0.305,0.114,0.595,0.323,0.819c0.449,0.483,1.193,0.5,1.692,0.041
			c0.328-0.301,0.695-0.573,1.093-0.809c0.954-0.562,2.049-0.846,3.256-0.846c0.851,0,1.603,0.136,2.235,0.404
			c0.654,0.274,1.186,0.691,1.577,1.238c0.398,0.56,0.6,1.267,0.6,2.104c0,1.249-0.464,2.299-1.38,3.12
			c-0.9,0.806-2.182,1.215-3.807,1.215h-0.102c-0.227,0-0.411,0.185-0.411,0.411v1.077c0,0.11,0.043,0.213,0.121,0.292
			c0.076,0.077,0.181,0.12,0.29,0.12c1.89,0,3.35,0.426,4.338,1.266c1.011,0.858,1.523,2.049,1.523,3.539
			c0,1.451-0.479,2.564-1.422,3.309c-0.906,0.716-2.161,1.079-3.73,1.079c-1.385,0-2.555-0.259-3.479-0.769
			c-0.386-0.213-0.744-0.46-1.064-0.737C240.126,71.569,239.841,71.469,239.559,71.469z"/>
	</g>
	<g>
		<path style="fill:#D69EBF;" d="M459.435,344.278c-1.337-0.886-2.915-1.327-4.735-1.327c-1.659,0-3.158,0.389-4.495,1.166
			c-1.337,0.778-2.397,1.828-3.179,3.148c-0.784,1.32-1.177,2.782-1.177,4.383c0,1.58,0.376,3.007,1.123,4.279
			c0.749,1.273,1.776,2.281,3.079,3.023c1.3,0.744,2.747,1.114,4.339,1.114c0.852,0,1.653-0.139,2.402-0.414
			c0.747-0.277,1.41-0.668,1.986-1.175c0.578-0.507,1.027-1.094,1.351-1.763c-0.025,1.751-0.272,3.277-0.744,4.573
			c-0.474,1.299-1.131,2.289-1.971,2.975c-0.879,0.713-1.938,1.054-3.181,1.023c-1.029-0.027-2.04-0.326-2.919-0.861
			c-0.447-0.272-0.846-0.586-1.198-0.944c-0.324-0.329-0.749-0.495-1.175-0.495c-0.418,0-0.836,0.162-1.152,0.493
			c-0.576,0.601-0.599,1.543-0.052,2.169c0.659,0.757,1.426,1.379,2.294,1.869c1.291,0.726,2.72,1.09,4.288,1.09
			c1.913,0,3.566-0.543,4.961-1.628c1.395-1.085,2.477-2.701,3.25-4.847c0.771-2.146,1.158-4.812,1.158-7.997
			c0-2.335-0.376-4.339-1.123-6.015C461.816,346.442,460.772,345.162,459.435,344.278z M459.194,354.333
			c-0.484,0.813-1.112,1.464-1.884,1.953c-0.773,0.489-1.655,0.734-2.645,0.734c-0.923,0-1.78-0.245-2.576-0.734
			c-0.794-0.489-1.43-1.141-1.9-1.953c-0.474-0.811-0.711-1.707-0.711-2.688c0-1.002,0.243-1.917,0.726-2.74
			c0.484-0.825,1.117-1.482,1.901-1.971c0.784-0.489,1.649-0.736,2.593-0.736c0.946,0,1.809,0.247,2.593,0.736
			c0.782,0.489,1.418,1.146,1.901,1.971c0.483,0.823,0.726,1.738,0.726,2.74C459.921,352.626,459.678,353.522,459.194,354.333z"/>
	</g>
	<g>
		<path style="fill:#897FA4;" d="M155.523,479.554h-1.389v-14.217c0-1.01-0.817-1.827-1.827-1.827h-0.055
			c-0.564,0-1.098,0.261-1.444,0.707l-11.567,14.918c-0.248,0.32-0.385,0.713-0.385,1.118v1.13c0,1.008,0.819,1.827,1.829,1.827
			h9.392v3.984c0,1.008,0.819,1.827,1.829,1.827h0.401c1.01,0,1.827-0.819,1.827-1.827v-3.984h1.389
			c0.505,0,0.961-0.204,1.293-0.536c0.33-0.33,0.534-0.788,0.534-1.291C157.35,480.372,156.533,479.554,155.523,479.554z
			 M150.516,479.554h-7.603l7.603-9.905V479.554z"/>
	</g>
	<g>
		<path style="fill:#897FA4;" d="M183.685,435.95c0.51,0.866,0.765,1.868,0.765,3.005c0,1.207-0.29,2.263-0.867,3.172
			c-0.576,0.909-1.354,1.618-2.33,2.128c-0.978,0.508-2.086,0.764-3.325,0.764c-1.309,0-2.48-0.292-3.517-0.879
			c-0.691-0.392-1.273-0.876-1.746-1.454c-0.396-0.484-0.352-1.194,0.094-1.634c0.236-0.233,0.544-0.349,0.852-0.349
			c0.309,0,0.619,0.118,0.857,0.352c0.327,0.321,0.69,0.602,1.09,0.843c0.747,0.449,1.545,0.674,2.395,0.674
			c0.696,0,1.316-0.156,1.86-0.471c0.542-0.314,0.973-0.738,1.286-1.273c0.314-0.535,0.471-1.141,0.471-1.821
			c0-0.679-0.149-1.278-0.446-1.796c-0.298-0.518-0.706-0.921-1.224-1.211c-0.518-0.288-1.099-0.433-1.745-0.433
			c-0.662,0-1.273,0.145-1.834,0.433c-0.402,0.209-0.751,0.481-1.049,0.819c-0.236,0.268-0.569,0.43-0.927,0.43h-0.392
			c-0.767,0-1.342-0.698-1.195-1.451l1.78-9.122h7.622c0.673,0,1.218,0.545,1.218,1.217v0.139c0,0.672-0.545,1.217-1.218,1.217
			h-5.584l-0.917,4.942c0.288-0.305,0.679-0.551,1.171-0.738c0.493-0.186,1.053-0.28,1.681-0.28c1.139,0,2.158,0.246,3.058,0.738
			C182.471,434.404,183.175,435.083,183.685,435.95z"/>
	</g>
	<g>
		<path style="fill:#D69EBF;" d="M307.885,450.637v0.891c0,0.536-0.436,0.972-0.972,0.972h-8.997c-0.538,0-0.974-0.436-0.974-0.972
			v-0.891c0-0.536,0.436-0.972,0.974-0.972h3.094v-10.026c-0.172,0.23-0.439,0.473-0.801,0.731
			c-0.364,0.257-0.774,0.496-1.232,0.715c-0.458,0.22-0.911,0.398-1.36,0.53l-0.014,0.005c-0.615,0.182-1.232-0.279-1.232-0.921
			v-1.009c0-0.434,0.289-0.814,0.706-0.934c0.198-0.056,0.405-0.134,0.627-0.235c0.506-0.228,0.998-0.501,1.475-0.816
			c0.477-0.316,0.888-0.621,1.231-0.916c0.102-0.088,0.192-0.169,0.268-0.243c0.273-0.26,0.634-0.402,1.01-0.402h1.09
			c0.813,0,1.47,0.658,1.47,1.47v12.05h2.666C307.449,449.665,307.885,450.101,307.885,450.637z"/>
	</g>
	<g>
		<path style="fill:#FBF2FF;" d="M465.804,302.383c-1.098-0.947-2.263-1.71-3.497-2.289c1.04-0.46,2.012-1.098,2.92-1.906
			c0.905-0.808,1.616-1.742,2.138-2.801c0.518-1.059,0.779-2.167,0.779-3.323c0-1.848-0.396-3.448-1.185-4.797
			c-0.789-1.346-1.848-2.482-3.178-3.406c-1.33-0.924-2.785-1.626-4.363-2.109c-1.581-0.483-3.139-0.724-4.678-0.724
			c-1.542,0-3.091,0.242-4.653,0.724c-1.558,0.483-3.004,1.185-4.334,2.109c-1.327,0.924-2.389,2.08-3.178,3.464
			c-0.789,1.388-1.182,2.969-1.182,4.74c0,1.195,0.267,2.312,0.808,3.352c0.538,1.04,1.249,1.964,2.138,2.772
			c0.885,0.808,1.848,1.446,2.888,1.906c-1.156,0.502-2.273,1.207-3.352,2.115c-1.079,0.908-1.974,2.019-2.685,3.329
			c-0.715,1.314-1.069,2.782-1.069,4.405c0,2.431,0.634,4.595,1.906,6.484c1.272,1.893,3.014,3.4,5.229,4.521
			c2.215,1.117,4.688,1.681,7.425,1.681c2.656,0,5.113-0.522,7.367-1.565c2.251-1.043,4.044-2.492,5.371-4.347
			c1.33-1.851,1.996-4.015,1.996-6.485c0-1.661-0.328-3.149-0.982-4.459C467.778,304.46,466.902,303.329,465.804,302.383z
			 M448.817,289.32c0.638-0.831,1.475-1.475,2.515-1.938c1.04-0.46,2.157-0.692,3.352-0.692c1.272,0,2.424,0.222,3.468,0.663
			c1.037,0.444,1.883,1.069,2.54,1.88c0.653,0.808,0.982,1.79,0.982,2.946c0,1.233-0.357,2.273-1.069,3.12
			c-0.712,0.847-1.591,1.494-2.627,1.935c-1.04,0.444-2.122,0.663-3.236,0.663c-1.04,0-2.099-0.209-3.178-0.634
			c-1.079-0.425-1.964-1.059-2.659-1.906c-0.692-0.847-1.04-1.887-1.04-3.12C447.864,291.12,448.182,290.148,448.817,289.32z
			 M461.76,313.456c-0.789,1.063-1.8,1.896-3.033,2.495c-1.233,0.599-2.543,0.898-3.928,0.898c-1.005,0-1.996-0.155-2.975-0.464
			c-0.982-0.309-1.871-0.773-2.66-1.391c-0.789-0.621-1.413-1.365-1.877-2.234c-0.464-0.869-0.695-1.829-0.695-2.872
			c0-1.471,0.386-2.737,1.159-3.799c0.77-1.066,1.771-1.887,3.001-2.466c1.233-0.579,2.544-0.869,3.931-0.869
			c1.04,0,2.041,0.155,3.004,0.464c0.963,0.309,1.858,0.773,2.685,1.391c0.827,0.621,1.465,1.365,1.906,2.234
			c0.444,0.869,0.667,1.845,0.667,2.93C462.945,311.163,462.549,312.393,461.76,313.456z"/>
	</g>
	<g>
		<path style="fill:#EBD2E1;" d="M394.939,398.291h-0.416c-0.879,0-1.679-0.448-2.138-1.198c-0.458-0.749-0.493-1.664-0.094-2.446
			l10.249-20.064h-10.837c-1.383,0-2.508-1.124-2.508-2.505c0-0.669,0.261-1.298,0.735-1.772c0.474-0.473,1.103-0.732,1.773-0.732
			h14.855c0.964,0,1.841,0.49,2.346,1.311c0.504,0.821,0.546,1.825,0.11,2.685v0.001l-11.842,23.35
			C396.745,397.766,395.888,398.291,394.939,398.291z M391.704,370.573c-0.403,0-0.781,0.156-1.065,0.44
			c-0.285,0.284-0.442,0.663-0.442,1.064c0,0.83,0.677,1.505,1.508,1.505h11.653c0.174,0,0.336,0.091,0.427,0.239
			c0.091,0.148,0.098,0.333,0.018,0.488l-10.62,20.792c-0.24,0.47-0.219,1.02,0.057,1.47c0.275,0.45,0.756,0.72,1.284,0.72h0.416
			c0.57,0,1.085-0.315,1.342-0.823l11.842-23.351c0.277-0.548,0.251-1.186-0.07-1.71c-0.321-0.522-0.88-0.835-1.493-0.835H391.704z
			 M408.569,373.343h0.01H408.569z"/>
	</g>
	<g>
		<path style="fill:#EBD2E1;" d="M308.72,491.664c-1.888,0-3.592-0.5-5.065-1.484c-1.463-0.977-2.635-2.339-3.483-4.05
			c-0.845-1.702-1.273-3.666-1.273-5.837c0-2.172,0.429-4.136,1.273-5.838c0.846-1.706,2.018-3.074,3.481-4.065
			c1.476-0.997,3.181-1.502,5.067-1.502c1.89,0,3.589,0.506,5.052,1.503c1.448,0.988,2.618,2.354,3.48,4.062v0.001
			c0.856,1.699,1.291,3.664,1.291,5.84c0,2.175-0.435,4.14-1.291,5.84c-0.863,1.711-2.035,3.072-3.482,4.046
			C312.309,491.164,310.61,491.664,308.72,491.664z M308.72,469.888c-1.684,0-3.2,0.447-4.507,1.33
			c-1.319,0.893-2.378,2.132-3.145,3.682c-0.776,1.564-1.17,3.377-1.17,5.394c0,2.016,0.394,3.83,1.17,5.393
			c0.768,1.552,1.826,2.784,3.142,3.662c1.307,0.874,2.824,1.316,4.51,1.316c1.686,0,3.197-0.442,4.491-1.315
			c1.303-0.877,2.362-2.11,3.147-3.667c0.785-1.56,1.184-3.373,1.184-5.39c0-2.018-0.398-3.831-1.184-5.39l0,0
			c-0.784-1.555-1.844-2.795-3.15-3.686C311.916,470.335,310.405,469.888,308.72,469.888z M308.72,487.948
			c-1.15,0-2.178-0.34-3.054-1.01c-0.855-0.657-1.538-1.569-2.03-2.71c-0.484-1.125-0.73-2.449-0.73-3.935
			c0-1.489,0.239-2.817,0.713-3.949c0.48-1.158,1.165-2.077,2.035-2.733c0.882-0.67,1.902-1.01,3.032-1.01
			c1.152,0,2.186,0.347,3.071,1.03c0.868,0.67,1.551,1.589,2.03,2.73c0.473,1.121,0.713,2.444,0.713,3.932
			c0,1.462-0.24,2.773-0.713,3.896l0,0c-0.48,1.143-1.163,2.061-2.031,2.729C310.872,487.602,309.85,487.948,308.72,487.948z
			 M308.686,473.601c-0.919,0-1.714,0.264-2.429,0.808c-0.728,0.548-1.304,1.328-1.716,2.319c-0.422,1.011-0.636,2.209-0.636,3.565
			c0,1.35,0.218,2.541,0.648,3.539c0.424,0.983,1.003,1.761,1.721,2.313c0.706,0.541,1.507,0.804,2.445,0.804
			c0.916,0,1.71-0.269,2.426-0.821c0.729-0.562,1.308-1.344,1.72-2.324v-0.001c0.421-1,0.635-2.181,0.635-3.509
			c0-1.354-0.214-2.546-0.635-3.544c-0.412-0.981-0.99-1.764-1.72-2.327C310.43,473.869,309.626,473.601,308.686,473.601z"/>
	</g>
	<g>
		<path style="fill:#897FA4;" d="M399.449,475.367v0.891c0,0.536-0.436,0.972-0.972,0.972h-8.997c-0.538,0-0.974-0.436-0.974-0.972
			v-0.891c0-0.536,0.436-0.972,0.974-0.972h3.094v-10.026c-0.172,0.23-0.439,0.473-0.801,0.731
			c-0.364,0.257-0.774,0.496-1.232,0.715c-0.458,0.22-0.911,0.397-1.36,0.53l-0.014,0.005c-0.615,0.182-1.232-0.279-1.232-0.921
			v-1.009c0-0.434,0.289-0.814,0.706-0.934c0.198-0.056,0.405-0.134,0.627-0.235c0.506-0.228,0.998-0.501,1.475-0.816
			c0.477-0.316,0.888-0.621,1.231-0.916c0.102-0.088,0.191-0.169,0.268-0.243c0.273-0.26,0.634-0.402,1.01-0.402h1.09
			c0.813,0,1.47,0.658,1.47,1.47v12.05h2.666C399.013,474.395,399.449,474.83,399.449,475.367z"/>
	</g>
	<g>
		<path style="fill:#FBF2FF;" d="M364.895,438.509c0.773,1.314,1.161,2.834,1.161,4.559c0,1.831-0.439,3.433-1.316,4.811
			c-0.874,1.378-2.055,2.455-3.534,3.228c-1.484,0.771-3.164,1.159-5.044,1.159c-1.986,0-3.762-0.444-5.335-1.333
			c-1.049-0.595-1.932-1.329-2.649-2.205c-0.601-0.734-0.534-1.811,0.142-2.479c0.358-0.353,0.825-0.53,1.292-0.53
			c0.47,0,0.939,0.179,1.301,0.534c0.495,0.487,1.047,0.913,1.654,1.279c1.133,0.681,2.343,1.023,3.633,1.023
			c1.055,0,1.996-0.237,2.821-0.715c0.823-0.476,1.475-1.12,1.951-1.932c0.476-0.812,0.715-1.732,0.715-2.763
			c0-1.029-0.226-1.938-0.676-2.724c-0.452-0.786-1.07-1.398-1.856-1.837c-0.786-0.437-1.667-0.657-2.647-0.657
			c-1.004,0-1.932,0.22-2.783,0.657c-0.61,0.317-1.139,0.73-1.592,1.243c-0.358,0.407-0.864,0.653-1.406,0.653h-0.594
			c-1.163,0-2.035-1.06-1.813-2.201l2.701-13.837h11.563c1.021,0,1.848,0.827,1.848,1.846v0.211c0,1.019-0.827,1.846-1.848,1.846
			h-8.47l-1.391,7.497c0.437-0.463,1.029-0.836,1.777-1.12c0.747-0.282,1.598-0.424,2.55-0.424c1.727,0,3.274,0.373,4.639,1.12
			C363.053,436.164,364.122,437.194,364.895,438.509z"/>
	</g>
	<g>
		<path style="fill:#EBD2E1;" d="M73.64,127.62c-1.288,0-2.48-0.304-3.544-0.903c-0.699-0.393-1.322-0.896-1.852-1.493
			c-0.556-0.626-0.618-1.554-0.146-2.206c0.614-0.85,1.935-0.936,2.665-0.192c0.245,0.249,0.529,0.472,0.845,0.662
			c0.573,0.345,1.223,0.544,1.879,0.574c0.877,0.045,1.609-0.177,2.219-0.672c0.572-0.467,1.03-1.164,1.361-2.071
			c0.185-0.508,0.323-1.073,0.414-1.688c-0.027,0.024-0.054,0.049-0.082,0.073c-0.484,0.426-1.051,0.762-1.684,0.996
			c-0.632,0.232-1.313,0.35-2.022,0.35c-1.309,0-2.515-0.311-3.586-0.922c-1.074-0.612-1.933-1.456-2.551-2.506
			c-0.619-1.054-0.933-2.246-0.933-3.545c0-1.317,0.328-2.538,0.976-3.627c0.643-1.084,1.525-1.958,2.623-2.599
			c1.103-0.64,2.351-0.964,3.71-0.964c1.495,0,2.814,0.372,3.919,1.104c1.105,0.73,1.976,1.795,2.589,3.166
			c0.603,1.351,0.908,2.976,0.908,4.832c0,2.495-0.31,4.621-0.92,6.321c-0.624,1.735-1.521,3.066-2.664,3.955
			C76.605,127.163,75.218,127.62,73.64,127.62z M69.502,123.295c-0.139,0-0.4,0.04-0.594,0.308c-0.196,0.271-0.16,0.683,0.084,0.957
			c0.456,0.515,0.992,0.947,1.594,1.286c0.913,0.514,1.941,0.774,3.054,0.774c1.35,0,2.531-0.386,3.509-1.147
			c0.992-0.771,1.778-1.95,2.337-3.504c0.572-1.591,0.862-3.604,0.862-5.983c0-1.714-0.276-3.203-0.821-4.424
			c-0.534-1.193-1.284-2.115-2.228-2.739c0,0,0,0,0,0c-0.938-0.623-2.071-0.938-3.367-0.938c-1.18,0-2.259,0.279-3.207,0.829
			c-0.949,0.552-1.711,1.308-2.266,2.244c-0.555,0.934-0.836,1.982-0.836,3.117c0,1.119,0.268,2.141,0.796,3.039
			c0.528,0.898,1.263,1.62,2.185,2.145c0.919,0.525,1.958,0.791,3.09,0.791c0.592,0,1.156-0.097,1.676-0.288
			c0.516-0.191,0.977-0.464,1.37-0.81c0.391-0.343,0.7-0.746,0.919-1.199c0.102-0.211,0.337-0.323,0.565-0.269
			c0.228,0.054,0.388,0.259,0.385,0.493c-0.02,1.401-0.223,2.64-0.603,3.683c-0.394,1.08-0.955,1.922-1.67,2.504
			c-0.798,0.648-1.772,0.951-2.896,0.896c-0.821-0.039-1.632-0.287-2.347-0.716c-0.388-0.233-0.739-0.508-1.043-0.818
			C69.903,123.377,69.708,123.295,69.502,123.295z M73.905,118.709c-0.799,0-1.554-0.215-2.243-0.639
			c-0.682-0.42-1.231-0.985-1.632-1.678c-0.407-0.696-0.614-1.477-0.614-2.318c0-0.858,0.211-1.652,0.628-2.361
			c0.412-0.701,0.959-1.269,1.629-1.687c1.365-0.852,3.154-0.852,4.52,0c0.671,0.42,1.219,0.987,1.629,1.688
			c0.416,0.709,0.627,1.503,0.627,2.361c0,0.842-0.211,1.624-0.629,2.323l0,0c-0.411,0.69-0.953,1.252-1.612,1.669
			C75.535,118.493,74.76,118.709,73.905,118.709z M73.932,110.384c-0.636,0-1.202,0.16-1.73,0.49
			c-0.531,0.332-0.967,0.784-1.296,1.345c-0.325,0.553-0.49,1.177-0.49,1.855c0,0.662,0.161,1.272,0.479,1.815
			c0.318,0.551,0.753,0.997,1.292,1.33c1.119,0.688,2.492,0.634,3.487,0.003c0.525-0.333,0.958-0.782,1.287-1.336c0,0,0,0,0.001,0
			c0.324-0.543,0.488-1.152,0.488-1.811c0-0.678-0.165-1.302-0.49-1.854c-0.328-0.56-0.765-1.013-1.297-1.346
			C75.134,110.544,74.568,110.384,73.932,110.384z"/>
	</g>
	<g>
		<path style="fill:#FBF2FF;" d="M54.161,89.844h-1.984V68.412c0-1.521-1.233-2.754-2.754-2.754h-0.083
			c-0.851,0-1.655,0.393-2.177,1.065L29.725,89.212c-0.375,0.482-0.58,1.075-0.58,1.686v1.704c0,1.521,1.233,2.754,2.754,2.754
			H46.06v6.006c0,1.521,1.233,2.754,2.754,2.754h0.608c1.521,0,2.754-1.233,2.754-2.754v-6.006h2.094
			c0.762,0,1.449-0.307,1.95-0.808c0.604-0.604,0.928-1.494,0.761-2.443C56.76,90.85,55.434,89.844,54.161,89.844z M46.723,89.844
			H35.261l11.462-14.932V89.844z"/>
	</g>
	<g>
		<path style="fill:#897FA4;" d="M35.258,144.706l-9.111,17.965c-0.262,0.518-0.795,0.844-1.376,0.844h-0.32
			c-1.153,0-1.898-1.218-1.374-2.244l8.171-15.996h-8.901c-0.706,0-1.453-0.555-1.582-1.249c-0.1-0.539,0.083-1.043,0.426-1.385
			c0.279-0.279,0.664-0.451,1.091-0.451h11.43C35.004,142.189,35.842,143.553,35.258,144.706z"/>
	</g>
	<g>
		<defs>
			<rect id="SVGID_1_" width="500" height="500"/>
		</defs>
		<clipPath id="SVGID_00000014604336562824754160000007579929208106933427_">
			<use xlink:href="#SVGID_1_"  style="overflow:visible;"/>
		</clipPath>
		<g style="clip-path:url(#SVGID_00000014604336562824754160000007579929208106933427_);">
			<g>
				<polygon style="fill:#EBD2E1;" points="133.372,94.482 132.372,94.482 132.372,69.872 138.378,30.794 161.686,15.757 
					162.228,16.597 139.298,31.391 133.366,69.948 				"/>
			</g>
			<g>
				<polygon style="fill:#EBD2E1;" points="132.783,70.364 105.085,65.361 17.255,28.327 47.691,-14.283 48.068,-14.106 
					111.458,15.724 139.076,30.653 138.6,31.532 111.007,16.617 48.02,-13.023 18.795,27.891 105.422,64.418 132.961,69.38 				"/>
			</g>
			<g>
				<polygon style="fill:#EBD2E1;" points="132.984,63.23 134.758,67.253 139.129,66.778 136.532,70.325 139.129,73.873 
					134.758,73.397 132.984,77.42 131.211,73.397 126.84,73.873 129.437,70.325 126.84,66.778 131.211,67.253 				"/>
			</g>
			<g>
				<polygon style="fill:#EBD2E1;" points="47.227,-19.619 49.001,-15.597 53.372,-16.072 50.775,-12.524 53.372,-8.977 
					49.001,-9.452 47.227,-5.429 45.453,-9.452 41.083,-8.977 43.68,-12.524 41.083,-16.072 45.453,-15.597 				"/>
			</g>
			<g>
				<polygon style="fill:#EBD2E1;" points="161.957,9.082 163.73,13.105 168.101,12.63 165.504,16.177 168.101,19.725 
					163.73,19.249 161.957,23.272 160.183,19.249 155.812,19.725 158.409,16.177 155.812,12.63 160.183,13.105 				"/>
			</g>
			<g>
				<path style="fill:#EBD2E1;" d="M133.26,92.458c-3.162,0-3.167,4.915,0,4.915C136.422,97.372,136.427,92.458,133.26,92.458z"/>
			</g>
			<g>
				<path style="fill:#EBD2E1;" d="M139.066,28.588c-3.162,0-3.167,4.915,0,4.915C142.229,33.502,142.234,28.588,139.066,28.588z"/>
			</g>
			<g>
				<path style="fill:#EBD2E1;" d="M105.253,63.426c-3.163,0-3.168,4.915,0,4.915C108.415,68.34,108.42,63.426,105.253,63.426z"/>
			</g>
			<g>
				<path style="fill:#EBD2E1;" d="M17.132,24.83c-3.162,0-3.168,4.915,0,4.915C20.294,29.745,20.299,24.83,17.132,24.83z"/>
			</g>
		</g>
		<g style="clip-path:url(#SVGID_00000014604336562824754160000007579929208106933427_);">
			<g>
				<polygon style="fill:#EBD2E1;" points="440.742,531.379 435.284,509.29 485.197,494.316 501.418,439.017 456.58,412.557 
					427.377,439.284 405.646,439.284 380.16,421.295 380.736,420.479 405.963,438.284 426.988,438.284 456.451,411.319 
					456.769,411.507 502.596,438.552 486.004,495.118 485.744,495.195 436.483,509.974 441.713,531.139 				"/>
			</g>
			<g>
				
					<rect x="470.558" y="409.457" transform="matrix(0.9435 -0.3315 0.3315 0.9435 -123.6392 181.7826)" style="fill:#EBD2E1;" width="1" height="87.74"/>
			</g>
			<g>
				<polygon style="fill:#EBD2E1;" points="485.6,487.622 487.374,491.645 491.745,491.169 489.148,494.717 491.745,498.264 
					487.374,497.789 485.6,501.812 483.827,497.789 479.456,498.264 482.053,494.717 479.456,491.169 483.827,491.645 				"/>
			</g>
			<g>
				<polygon style="fill:#EBD2E1;" points="380.448,411.938 382.222,415.96 386.593,415.485 383.996,419.033 386.593,422.58 
					382.222,422.105 380.448,426.128 378.674,422.105 374.304,422.58 376.901,419.033 374.304,415.485 378.674,415.96 				"/>
			</g>
			<g>
				<polygon style="fill:#EBD2E1;" points="458.642,404.842 460.415,408.865 464.786,408.39 462.189,411.938 464.786,415.485 
					460.415,415.01 458.642,419.033 456.868,415.01 452.497,415.485 455.094,411.938 452.497,408.39 456.868,408.865 				"/>
			</g>
			<g>
				<path style="fill:#EBD2E1;" d="M441.3,528.346c-3.162,0-3.167,4.915,0,4.915C444.463,533.261,444.468,528.346,441.3,528.346z"/>
			</g>
			<g>
				<path style="fill:#EBD2E1;" d="M435.835,506.942c-3.162,0-3.168,4.915,0,4.915C438.998,511.857,439.003,506.942,435.835,506.942
					z"/>
			</g>
			<g>
				<path style="fill:#EBD2E1;" d="M501.641,436.582c-3.162,0-3.168,4.915,0,4.915C504.804,441.497,504.809,436.582,501.641,436.582
					z"/>
			</g>
			<g>
				<path style="fill:#EBD2E1;" d="M405.779,436.355c-3.162,0-3.168,4.915,0,4.915C408.941,441.269,408.946,436.355,405.779,436.355
					z"/>
			</g>
			<g>
				<path style="fill:#EBD2E1;" d="M427.183,436.355c-3.163,0-3.168,4.915,0,4.915C430.345,441.269,430.35,436.355,427.183,436.355z
					"/>
			</g>
		</g>
		<g style="clip-path:url(#SVGID_00000014604336562824754160000007579929208106933427_);">
			<g>
				<polygon style="fill:#EBD2E1;" points="72.728,256.406 61.542,239.254 40.856,217.101 -31.275,214.871 -31.244,213.871 
					41.303,216.115 62.326,238.64 73.566,255.86 				"/>
			</g>
			<g>
				<polygon style="fill:#EBD2E1;" points="73.147,249.038 74.921,253.061 79.292,252.586 76.695,256.133 79.292,259.681 
					74.921,259.206 73.147,263.228 71.373,259.206 67.003,259.681 69.6,256.133 67.003,252.586 71.373,253.061 				"/>
			</g>
			<g>
				<polygon style="fill:#EBD2E1;" points="-28.254,207.276 -26.48,211.298 -22.109,210.823 -24.706,214.371 -22.109,217.918 
					-26.48,217.443 -28.254,221.466 -30.028,217.443 -34.398,217.918 -31.801,214.371 -34.398,210.823 -30.028,211.298 				"/>
			</g>
			<g>
				<path style="fill:#EBD2E1;" d="M41.467,213.842c-3.162,0-3.168,4.915,0,4.915C44.63,218.756,44.635,213.842,41.467,213.842z"/>
			</g>
			<g>
				<path style="fill:#EBD2E1;" d="M61.278,237.523c-3.162,0-3.167,4.914,0,4.914C64.44,242.437,64.445,237.523,61.278,237.523z"/>
			</g>
		</g>
		<g style="clip-path:url(#SVGID_00000014604336562824754160000007579929208106933427_);">
			<g>
				<path style="fill:#EBD2E1;" d="M502.679,114.568H385.052l21.569-45.677l0.234-0.056l65.729-15.509l-9.421-16.884l0.235-0.266
					l38.975-43.894l7.985,23.181l-0.945,0.326l-7.429-21.564l-37.603,42.349l9.329,16.72l28.968,16.481V114.568z M386.631,113.568
					h115.049V70.359l-28.412-16.166l-65.946,15.561L386.631,113.568z"/>
			</g>
			<g>
				<polygon style="fill:#EBD2E1;" points="473.344,46.566 475.118,50.589 479.488,50.114 476.891,53.661 479.488,57.209 
					475.118,56.734 473.344,60.757 471.57,56.734 467.199,57.209 469.796,53.661 467.199,50.114 471.57,50.589 				"/>
			</g>
			<g>
				<polygon style="fill:#EBD2E1;" points="509.886,7.978 511.66,12.001 516.031,11.526 513.434,15.074 516.031,18.621 
					511.66,18.146 509.886,22.169 508.112,18.146 503.742,18.621 506.339,15.074 503.742,11.526 508.112,12.001 				"/>
			</g>
			<g>
				<polygon style="fill:#EBD2E1;" points="385.841,105.527 387.615,109.55 391.986,109.075 389.389,112.622 391.986,116.17 
					387.615,115.694 385.841,119.717 384.067,115.694 379.697,116.17 382.294,112.622 379.697,109.075 384.067,109.55 				"/>
			</g>
			<g>
				<path style="fill:#EBD2E1;" d="M406.156,67.437c-3.162,0-3.168,4.914,0,4.914C409.319,72.352,409.324,67.437,406.156,67.437z"/>
			</g>
			<g>
				<path style="fill:#EBD2E1;" d="M463.025,34.648c-3.162,0-3.167,4.915,0,4.915C466.187,39.563,466.192,34.648,463.025,34.648z"/>
			</g>
			<g>
				<path style="fill:#EBD2E1;" d="M502.474-8.387c-3.162,0-3.168,4.915,0,4.915C505.637-3.473,505.642-8.387,502.474-8.387z"/>
			</g>
			<g>
				<path style="fill:#EBD2E1;" d="M502.474,67.95c-3.162,0-3.168,4.915,0,4.915C505.637,72.864,505.642,67.95,502.474,67.95z"/>
			</g>
			<g>
				<path style="fill:#EBD2E1;" d="M501.962,111.498c-3.162,0-3.168,4.915,0,4.915C505.124,116.412,505.13,111.498,501.962,111.498z
					"/>
			</g>
		</g>
		<g style="clip-path:url(#SVGID_00000014604336562824754160000007579929208106933427_);">
			<g>
				<polygon style="fill:#EBD2E1;" points="25.187,462.681 24.985,462.652 -46.609,452.21 -46.464,451.22 24.927,461.632 
					52.282,441.67 91.012,382.831 91.847,383.38 53.018,442.371 52.945,442.425 				"/>
			</g>
			<g>
				<polygon style="fill:#EBD2E1;" points="-11.807,525.811 -12.655,525.281 9.718,489.485 24.617,461.919 25.497,462.394 
					10.582,489.987 				"/>
			</g>
			<g>
				<polygon style="fill:#EBD2E1;" points="25.057,454.862 26.831,458.884 31.201,458.409 28.604,461.957 31.201,465.504 
					26.831,465.029 25.057,469.052 23.283,465.029 18.912,465.504 21.509,461.957 18.912,458.409 23.283,458.884 				"/>
			</g>
			<g>
				<polygon style="fill:#EBD2E1;" points="91.43,376.01 93.203,380.033 97.574,379.558 94.977,383.105 97.574,386.653 
					93.203,386.178 91.43,390.2 89.656,386.178 85.285,386.653 87.882,383.105 85.285,379.558 89.656,380.033 				"/>
			</g>
			<g>
				<path style="fill:#EBD2E1;" d="M-11.566,523.088c-3.162,0-3.168,4.915,0,4.915C-8.404,528.003-8.399,523.088-11.566,523.088z"/>
			</g>
			<g>
				<path style="fill:#EBD2E1;" d="M-46.405,449.313c-3.162,0-3.168,4.915,0,4.915C-43.242,454.227-43.237,449.313-46.405,449.313z"
					/>
			</g>
			<g>
				<path style="fill:#EBD2E1;" d="M52.646,439.408c-3.162,0-3.167,4.914,0,4.914C55.808,444.322,55.813,439.408,52.646,439.408z"/>
			</g>
		</g>
	</g>
</g>
</svg>
